<svg width="412" height="319" viewBox="0 0 412 319" fill="none" xmlns="http://www.w3.org/2000/svg">
<path d="M407.488 0H4.51215C2.02015 0 0 2.02015 0 4.51215V314.264C0 316.756 2.02015 318.776 4.51215 318.776H407.488C409.98 318.776 412 316.756 412 314.264V4.51215C412 2.02015 409.98 0 407.488 0Z" fill="#EDE9D9"/>
<path d="M399.439 15.6255V306.674H14.7764" stroke="black" stroke-width="0.25" stroke-miterlimit="10"/>
<path d="M184.275 151.353C185.652 151.353 186.768 150.237 186.768 148.86C186.768 147.483 185.652 146.367 184.275 146.367C182.898 146.367 181.782 147.483 181.782 148.86C181.782 150.237 182.898 151.353 184.275 151.353Z" fill="#E0DBCA"/>
<path d="M191.182 151.353C192.559 151.353 193.675 150.237 193.675 148.86C193.675 147.483 192.559 146.367 191.182 146.367C189.806 146.367 188.689 147.483 188.689 148.86C188.689 150.237 189.806 151.353 191.182 151.353Z" fill="#E0DBCA"/>
<path d="M198.077 151.353C199.454 151.353 200.57 150.237 200.57 148.86C200.57 147.483 199.454 146.367 198.077 146.367C196.7 146.367 195.584 147.483 195.584 148.86C195.584 150.237 196.7 151.353 198.077 151.353Z" fill="#E0DBCA"/>
<path d="M238.031 28.7998H52.8512C50.0592 28.7998 47.7959 31.0631 47.7959 33.8551V161.407C47.7959 164.199 50.0592 166.463 52.8512 166.463H238.031C240.823 166.463 243.086 164.199 243.086 161.407V33.8551C243.086 31.0631 240.823 28.7998 238.031 28.7998Z" fill="white" stroke="black" stroke-width="0.75" stroke-miterlimit="10"/>
<path d="M107.164 69.103C106.871 68.8801 106.732 68.5041 106.802 68.142C107.526 64.8275 112.177 48.8957 135.866 44.105C159.945 39.2586 180.166 52.1127 183.662 54.4941C183.996 54.7309 184.149 55.1208 184.052 55.5107C183.202 58.9506 178.105 75.1053 156.06 79.2693C132.12 83.8093 112.651 73.1138 107.164 69.103Z" fill="#162789"/>
<path d="M153.999 61.513C153.094 61.513 152.328 61.8751 151.798 62.5436C151.297 63.1703 151.033 64.0337 151.033 65.0503C151.033 67.2089 152.23 68.5737 154.138 68.5737C155.183 68.5737 156.13 68.142 156.659 67.4178C156.742 67.3204 156.742 67.209 156.659 67.1254L156.297 66.7355C156.297 66.7355 156.199 66.6519 156.13 66.6519C156.06 66.6519 156.018 66.6798 155.962 66.7355C155.489 67.209 154.932 67.4596 154.291 67.4596C153.734 67.4596 153.289 67.2925 152.968 66.9582C152.606 66.5822 152.397 66.0113 152.383 65.3149H156.52C156.659 65.3149 156.756 65.2314 156.756 65.0921C156.84 63.9362 156.561 62.9614 155.976 62.3347C155.489 61.7916 154.807 61.5269 154.013 61.5269M154.013 62.655C154.431 62.655 154.765 62.7803 155.002 63.031C155.266 63.2956 155.433 63.7134 155.461 64.2147H152.425C152.551 63.1424 153.275 62.655 154.013 62.655ZM145.239 62.0144L144.877 62.6689C144.807 62.7803 144.738 62.8082 144.612 62.7803C144.417 62.7246 144.222 62.6968 144.041 62.6968C143.262 62.6968 142.44 63.2817 142.44 64.7997V68.2534C142.44 68.3927 142.342 68.4902 142.203 68.4902H141.326C141.2 68.4902 141.089 68.4066 141.089 68.2534V64.6743C141.089 63.226 140.866 62.3765 140.323 61.8751C140.253 61.8055 140.184 61.7776 140.198 61.6802C140.226 61.5827 140.351 61.5409 140.462 61.5269C141.2 61.4573 141.827 61.9587 142.12 62.6411C142.565 61.9308 143.317 61.5269 144.209 61.5269C144.515 61.5269 144.807 61.5827 145.1 61.6662C145.183 61.6941 145.239 61.7358 145.267 61.7915C145.267 61.8751 145.239 61.9447 145.211 62.0144M150.462 66.4569C150.462 67.0975 150.211 67.6267 149.765 67.9888C149.32 68.3648 148.637 68.5737 147.829 68.5737C146.674 68.5737 145.685 68.1838 145.058 67.5292C144.975 67.4457 144.975 67.3204 145.058 67.209L145.476 66.7633C145.573 66.6519 145.685 66.6658 145.782 66.7633C146.339 67.2089 147.036 67.4457 147.788 67.4457C148.665 67.4457 149.125 67.0975 149.125 66.5405C149.125 66.2062 148.957 65.9556 148.609 65.8024C148.136 65.5795 147.37 65.5378 146.646 65.3149C145.754 65.0503 145.239 64.5211 145.239 63.6298C145.239 63.0589 145.504 62.5157 145.977 62.1258C146.451 61.7358 147.036 61.5269 147.802 61.5269C148.763 61.5269 149.612 61.8612 150.225 62.4043C150.281 62.46 150.308 62.5018 150.308 62.5714C150.308 62.6411 150.308 62.6828 150.239 62.7385L149.821 63.1842C149.737 63.2677 149.612 63.2817 149.528 63.2121C149.097 62.8639 148.47 62.655 147.857 62.655C147.036 62.655 146.562 62.9753 146.562 63.5184C146.562 63.8526 146.813 64.0476 147.189 64.173C147.816 64.3679 148.568 64.3958 149.264 64.6883C150.058 65.0086 150.434 65.6353 150.434 66.4708M163.135 61.9308C163.135 61.9308 160.962 67.6685 160.698 68.323C160.21 69.5764 159.945 70.1474 159.291 70.7323C158.497 71.4426 157.313 71.554 156.506 71.4426C156.422 71.4426 156.366 71.4008 156.325 71.3451C156.283 71.2894 156.283 71.2198 156.325 71.1223L156.52 70.5791C156.561 70.4677 156.645 70.412 156.77 70.426C157.397 70.4817 157.94 70.3424 158.4 69.9942C158.762 69.7157 159.068 69.2561 159.291 68.5737L156.77 61.9448C156.742 61.8612 156.742 61.7916 156.77 61.7219C156.812 61.6523 156.896 61.6384 156.979 61.6384H157.926C158.051 61.6384 158.107 61.708 158.149 61.7915L160.001 66.819L161.853 61.7915C161.881 61.708 161.937 61.6384 162.076 61.6384H162.94C163.023 61.6384 163.093 61.6662 163.149 61.7219C163.19 61.7916 163.19 61.8751 163.149 61.9448M128.555 68.1002C128.583 68.2116 128.555 68.2673 128.472 68.3509C128.249 68.5041 127.929 68.6016 127.608 68.6016C127.009 68.6016 126.285 68.3509 126.285 67.1811V61.8751C126.285 61.7358 126.383 61.6384 126.522 61.6384H127.413C127.553 61.6384 127.65 61.7358 127.65 61.8751V66.9026C127.65 67.209 127.72 67.4178 127.845 67.5432C127.929 67.6267 128.11 67.6824 128.305 67.6685C128.388 67.6685 128.43 67.6685 128.472 67.6963C128.513 67.7242 128.527 67.7799 128.541 67.8496L128.583 68.1142L128.555 68.1002ZM124.099 59.8418C125.018 60.7192 125.45 61.9447 125.45 63.5741C125.45 65.2035 125.115 66.3594 124.349 67.2228C123.57 68.1141 122.483 68.518 120.798 68.518H118.264C118.124 68.518 118.027 68.4345 118.027 68.2813V60.8724C118.027 60.4128 118.459 60.3432 119.141 60.2875C119.225 60.2875 119.28 60.2875 119.336 60.3432C119.378 60.385 119.406 60.4407 119.406 60.5242V67.3343H120.687C121.898 67.3343 122.678 67.0697 123.249 66.4012C123.737 65.8302 124.043 64.9389 124.043 63.5741C124.043 62.3904 123.737 61.4434 123.124 60.7749C122.442 60.0229 121.383 59.6608 119.99 59.6608C119.559 59.6608 118.876 59.7026 118.278 59.814C118.208 59.814 118.138 59.814 118.069 59.7861C117.999 59.7304 117.999 59.6608 117.999 59.5912V59.1177C117.999 58.9645 118.069 58.867 118.208 58.8391C118.849 58.6442 119.531 58.5745 120.408 58.5745C122.052 58.5745 123.194 58.9923 124.099 59.8558M126.035 59.7026C126.035 59.2152 126.452 58.8252 126.94 58.8252C127.427 58.8252 127.845 59.2291 127.845 59.7026C127.845 60.1761 127.427 60.5799 126.94 60.5799C126.452 60.5799 126.035 60.19 126.035 59.7026ZM131.104 68.5598C130.756 68.5598 130.616 68.4763 130.477 68.1281L128.151 61.9726C128.151 61.9726 128.124 61.8194 128.151 61.7637C128.193 61.6941 128.263 61.6802 128.36 61.6802H129.307C129.405 61.6802 129.488 61.7498 129.53 61.8333L131.382 66.8747L133.235 61.8333C133.276 61.7498 133.36 61.6802 133.457 61.6802H134.321C134.404 61.6802 134.488 61.708 134.53 61.7637C134.571 61.8194 134.585 61.9029 134.53 62.0004L132.204 68.142C132.065 68.5041 131.925 68.5737 131.577 68.5737H131.118L131.104 68.5598ZM137.385 61.5827C136.479 61.5827 135.713 61.9447 135.184 62.6132C134.683 63.2399 134.418 64.1034 134.418 65.12C134.418 67.2786 135.616 68.6434 137.524 68.6434C138.568 68.6434 139.515 68.2116 140.045 67.4875C140.128 67.39 140.128 67.2786 140.045 67.195L139.683 66.8051C139.683 66.8051 139.585 66.7215 139.515 66.7215C139.446 66.7215 139.404 66.7494 139.348 66.8051C138.875 67.2786 138.318 67.5292 137.677 67.5292C137.12 67.5292 136.674 67.3621 136.354 67.0279C135.992 66.6519 135.783 66.0809 135.769 65.3846H139.905C140.045 65.3846 140.128 65.301 140.142 65.1618C140.226 64.0059 139.947 63.031 139.362 62.4043C138.875 61.8473 138.192 61.5966 137.399 61.5966M137.399 62.7107C137.816 62.7107 138.151 62.836 138.387 63.0867C138.652 63.3513 138.819 63.7691 138.847 64.2704H135.825C135.936 63.1981 136.66 62.7107 137.399 62.7107ZM160.948 53.1432C160.948 53.0457 160.948 53.004 161.06 53.0179C163.079 53.0597 164.889 53.7142 165.99 55.0511C166.059 55.1347 165.948 55.2461 165.864 55.1625C164.555 54.1459 163.107 53.6446 161.547 53.5749C161.589 54.1599 161.756 54.9955 162.146 55.8032C162.202 55.9007 162.048 55.9842 161.993 55.9007C161.477 55.2322 161.06 54.2295 160.934 53.1293M165.349 59.5772C162.313 59.6608 160.781 58.5049 159.848 57.1541C161.046 56.7223 162.94 56.5134 164.862 57.1541C164.959 57.1958 165.029 57.0565 164.945 57.0008C163.316 55.9981 160.851 56.1514 159.166 56.8477C159.068 56.8895 159.054 56.9312 159.11 57.0426C160.753 59.7444 163.33 60.1622 165.377 59.7722C165.474 59.7444 165.474 59.5772 165.349 59.5772ZM179.08 57.9618C178.997 57.8782 178.927 57.8364 178.844 57.7807C177.562 56.9034 176.017 56.3603 174.359 56.2488C173.914 56.2071 173.802 56.0956 173.245 55.6082C172.535 55.0094 171.866 54.7726 171.031 54.8005C170.279 54.8283 169.541 55.1626 169.012 55.5525C168.19 53.1154 166.421 51.1796 164.36 50.0655C164.277 50.0237 164.249 50.0655 164.235 50.1351C163.97 50.915 163.956 52.238 164.137 53.2407C164.165 53.3521 164.332 53.3382 164.332 53.2407C164.332 52.2102 164.43 51.2631 164.625 50.8593C166.393 51.9595 167.814 53.7003 168.552 55.7892C168.636 55.9981 168.677 56.207 168.733 56.402C169.485 55.7753 170.279 55.3575 171.114 55.3436C172.229 55.3436 172.758 55.9007 173.273 56.2767C171.908 56.3463 170.223 56.9452 168.998 57.725C169.429 61.1231 167.884 64.1451 165.293 65.482C165.182 62.8917 166.115 59.438 167.661 57.4326C167.73 57.349 167.591 57.2237 167.508 57.3212C165.446 59.3684 164.444 63.0031 164.778 66.1366C164.778 66.2759 164.834 66.2898 164.959 66.2341C168.106 65.0086 169.931 61.7637 169.569 58.0035C170.669 57.4047 172.159 56.778 173.942 56.7502C175.641 56.7223 177.2 57.1401 178.746 58.0035C178.83 58.0593 178.913 58.0871 178.997 58.1428C179.08 58.2125 179.178 58.0871 179.08 58.0035" fill="white"/>
<path d="M177.813 46.7371C177.813 46.7371 177.757 46.8067 177.729 46.8067H177.186V48.6033C177.186 48.6033 177.158 48.6868 177.102 48.6868H176.866C176.866 48.6868 176.782 48.659 176.782 48.6033V46.8067H176.239C176.239 46.8067 176.155 46.8067 176.155 46.7371V46.57C176.155 46.57 176.183 46.4865 176.225 46.4865H177.757C177.757 46.4865 177.84 46.4865 177.84 46.5422V46.7371H177.813ZM180.152 48.6868H179.929C179.929 48.6868 179.846 48.6451 179.846 48.5894L179.818 47.2385L179.261 48.645C179.261 48.645 179.205 48.7007 179.177 48.7007H179.052C179.052 48.7007 178.982 48.7008 178.968 48.6311L178.37 47.2246V48.6172C178.37 48.6172 178.328 48.7007 178.272 48.7007H178.063C178.063 48.7007 177.994 48.6729 177.994 48.6172L178.049 46.5839C178.049 46.5143 178.077 46.5004 178.133 46.5004H178.328C178.328 46.5004 178.411 46.5282 178.425 46.57L179.136 48.1994L179.804 46.57C179.804 46.57 179.832 46.5004 179.888 46.5004H180.096C180.096 46.5004 180.18 46.5282 180.18 46.5839L180.25 48.6033C180.25 48.6868 180.25 48.7007 180.166 48.7007" fill="#162789"/>
<path d="M81.1362 107.902H74.3262V118.653H81.1362V107.902Z" fill="#E0DBCA"/>
<path d="M100.745 111.927H93.9346V132.51H100.745V111.927Z" fill="#E0DBCA"/>
<path d="M159.584 98.9333H152.774V119.517H159.584V98.9333Z" fill="#E0DBCA"/>
<path d="M139.975 104.963H133.165V113.807H139.975V104.963Z" fill="#E0DBCA"/>
<path d="M216.557 108.849H209.747V117.692H216.557V108.849Z" fill="#E0DBCA"/>
<path d="M120.353 94.8807H113.543V123.569H120.353V94.8807Z" fill="#E0DBCA"/>
<path d="M198.815 94.8807H192.005V123.569H198.815V94.8807Z" fill="#E0DBCA"/>
<path d="M179.206 91.037H172.396V114.336H179.206V91.037Z" fill="#E0DBCA"/>
<path d="M76.957 111.927L96.3148 122.218L116.954 98.0698L136.047 107.902L175.793 93.5994L195.401 98.9332L212.907 111.495" stroke="black" stroke-width="0.75" stroke-linejoin="round"/>
<path d="M82.8476 151.492H34.0215V200.318H82.8476V151.492Z" fill="#E0DBCA"/>
<path d="M75.8847 144.417H27.0586V193.243H75.8847V144.417Z" fill="#FFFDF4"/>
<path d="M44.5088 157.926H58.4352" stroke="black" stroke-width="0.75" stroke-linejoin="round"/>
<path d="M44.5088 164.694H58.4352" stroke="black" stroke-width="0.75" stroke-linejoin="round"/>
<path d="M46.6263 157.926C51.4727 157.661 55.219 159.903 55.205 164.778C55.1911 171.574 47.6151 170.905 44.8438 170.905L54.3137 179.749" stroke="black" stroke-width="0.75" stroke-linejoin="round"/>
<path d="M154.068 153.01H106.746V200.332H154.068V153.01Z" fill="#E0DBCA"/>
<path d="M146.018 145.671H98.6963V192.993H146.018V145.671Z" fill="#FFFDF4"/>
<path d="M127.232 161.881C126.007 161.212 124.572 160.781 123.166 160.753C120.84 160.711 117.999 162.494 118.375 165.14C118.723 167.633 121.453 168.371 123.402 169.234C124.53 169.735 125.658 170.376 126.424 171.351C127.706 172.994 127.358 175.292 125.84 176.671C123.556 178.746 120.004 177.729 117.47 176.768" stroke="black" stroke-width="0.75" stroke-linejoin="round"/>
<path d="M122.609 157.174V160.753" stroke="black" stroke-width="0.75" stroke-linejoin="round"/>
<path d="M122.609 177.896V181.475" stroke="black" stroke-width="0.75" stroke-linejoin="round"/>
<path d="M359.051 137.566H173.871C171.079 137.566 168.815 139.829 168.815 142.621V270.173C168.815 272.965 171.079 275.228 173.871 275.228H359.051C361.843 275.228 364.106 272.965 364.106 270.173V142.621C364.106 139.829 361.843 137.566 359.051 137.566Z" fill="white" stroke="black" stroke-width="0.75" stroke-miterlimit="10"/>
<path d="M232.375 248.838C249.873 248.838 264.058 234.653 264.058 217.155C264.058 199.657 249.873 185.473 232.375 185.473C214.877 185.473 200.692 199.657 200.692 217.155C200.692 234.653 214.877 248.838 232.375 248.838Z" fill="white" stroke="black" stroke-width="0.75" stroke-miterlimit="10"/>
<path d="M232.165 178.718C252.804 178.718 269.544 195.458 269.544 216.097L232.235 216.153L232.179 178.718H232.165Z" fill="white" stroke="black" stroke-width="0.75" stroke-miterlimit="10"/>
<path d="M169.317 159.319H364.107" stroke="black" stroke-width="0.75" stroke-miterlimit="10"/>
<path d="M351.112 190.862H294.501V196.14H351.112V190.862Z" fill="#E0DBCA"/>
<path d="M351.112 204.385H294.501V209.663H351.112V204.385Z" fill="#E0DBCA"/>
<path d="M351.112 217.893H294.501V223.171H351.112V217.893Z" fill="#E0DBCA"/>
<path d="M351.112 231.402H294.501V236.68H351.112V231.402Z" fill="#E0DBCA"/>
<path d="M196.712 242.668H149.39V289.99H196.712V242.668Z" fill="#E0DBCA"/>
<path d="M189.817 234.897H142.495V282.219H189.817V234.897Z" fill="#FFFDF4"/>
<path d="M171.88 249.325C171.88 249.325 165.237 246.428 163.733 252.834C163.009 255.926 164.694 258.851 164.457 261.901C164.304 263.892 163.496 265.8 161.937 267.081C161.199 267.694 160.321 268.14 159.416 268.46H172.925" stroke="black" stroke-width="0.75" stroke-linejoin="round"/>
<path d="M159.583 258.558H170.125" stroke="black" stroke-width="0.75" stroke-linejoin="round"/>
</svg>
