<svg width="412" height="319" viewBox="0 0 412 319" fill="none" xmlns="http://www.w3.org/2000/svg">
<g clip-path="url(#clip0_1404_4161)">
<path d="M407.488 0H4.51217C2.02017 0 0 2.02017 0 4.51217V314.264C0 316.756 2.02017 318.776 4.51217 318.776H407.488C409.98 318.776 412 316.756 412 314.264V4.51217C412 2.02017 409.98 0 407.488 0Z" fill="#CBE2F4"/>
<path d="M399.16 15.6116V306.66H14.4976" stroke="black" stroke-width="0.25" stroke-miterlimit="10"/>
<path d="M325.196 78.573H86.8034C84.496 78.573 82.6255 80.4435 82.6255 82.7509V233.254C82.6255 235.561 84.496 237.432 86.8034 237.432H325.196C327.504 237.432 329.374 235.561 329.374 233.254V82.7509C329.374 80.4435 327.504 78.573 325.196 78.573Z" fill="white" stroke="black" stroke-width="0.75" stroke-miterlimit="10"/>
<path d="M82.6255 207.072H329.374" stroke="black" stroke-width="0.75" stroke-miterlimit="10"/>
<path d="M227.599 237.432H184.414V280.618H227.599V237.432Z" fill="white" stroke="black" stroke-width="0.75" stroke-miterlimit="10"/>
<path d="M150.907 280.841H260.87" stroke="black" stroke-width="0.5" stroke-miterlimit="10"/>
<path d="M251.484 52.6699C248.169 52.6699 244.994 53.2269 242.014 54.2435C238.713 47.2803 231.652 42.4478 223.436 42.4478C222.809 42.4478 222.182 42.4896 221.556 42.5453C217.768 33.2425 208.646 26.6831 197.978 26.6831C186.085 26.6831 176.114 34.8301 173.301 45.8459C172.117 45.4838 170.85 45.2888 169.554 45.2888C164.151 45.2888 159.527 48.5894 157.578 53.2826C145.295 56.8199 136.312 68.1282 136.312 81.5394C136.312 97.7776 149.473 110.952 165.725 110.952H251.498C267.597 110.952 280.646 97.903 280.646 81.804C280.646 65.705 267.597 52.6559 251.498 52.6559L251.484 52.6699Z" fill="white" stroke="black" stroke-width="0.75" stroke-miterlimit="10"/>
<path d="M197.532 81.2051V91.4689" stroke="black" stroke-width="0.75" stroke-miterlimit="10"/>
<path d="M208.464 77.5564V91.4689" stroke="black" stroke-width="0.75" stroke-miterlimit="10"/>
<path d="M219.397 81.2051V91.4689" stroke="black" stroke-width="0.75" stroke-miterlimit="10"/>
<path d="M197.532 83.6143C198.863 83.6143 199.942 82.5357 199.942 81.2051C199.942 79.8744 198.863 78.7958 197.532 78.7958C196.202 78.7958 195.123 79.8744 195.123 81.2051C195.123 82.5357 196.202 83.6143 197.532 83.6143Z" fill="white" stroke="black" stroke-width="0.75" stroke-miterlimit="10"/>
<path d="M208.464 79.9656C209.795 79.9656 210.874 78.887 210.874 77.5564C210.874 76.2258 209.795 75.1471 208.464 75.1471C207.134 75.1471 206.055 76.2258 206.055 77.5564C206.055 78.887 207.134 79.9656 208.464 79.9656Z" fill="white" stroke="black" stroke-width="0.75" stroke-miterlimit="10"/>
<path d="M219.397 83.6143C220.728 83.6143 221.806 82.5357 221.806 81.2051C221.806 79.8744 220.728 78.7958 219.397 78.7958C218.066 78.7958 216.988 79.8744 216.988 81.2051C216.988 82.5357 218.066 83.6143 219.397 83.6143Z" fill="white" stroke="black" stroke-width="0.75" stroke-miterlimit="10"/>
<path d="M219.397 140.713V130.449" stroke="black" stroke-width="0.75" stroke-miterlimit="10"/>
<path d="M208.464 144.362V130.449" stroke="black" stroke-width="0.75" stroke-miterlimit="10"/>
<path d="M197.532 140.713V130.449" stroke="black" stroke-width="0.75" stroke-miterlimit="10"/>
<path d="M219.397 143.122C220.728 143.122 221.806 142.043 221.806 140.713C221.806 139.382 220.728 138.303 219.397 138.303C218.066 138.303 216.988 139.382 216.988 140.713C216.988 142.043 218.066 143.122 219.397 143.122Z" fill="white" stroke="black" stroke-width="0.75" stroke-miterlimit="10"/>
<path d="M208.464 146.771C209.795 146.771 210.874 145.692 210.874 144.362C210.874 143.031 209.795 141.952 208.464 141.952C207.134 141.952 206.055 143.031 206.055 144.362C206.055 145.692 207.134 146.771 208.464 146.771Z" fill="white" stroke="black" stroke-width="0.75" stroke-miterlimit="10"/>
<path d="M197.532 143.122C198.863 143.122 199.942 142.043 199.942 140.713C199.942 139.382 198.863 138.303 197.532 138.303C196.202 138.303 195.123 139.382 195.123 140.713C195.123 142.043 196.202 143.122 197.532 143.122Z" fill="white" stroke="black" stroke-width="0.75" stroke-miterlimit="10"/>
<path d="M238.212 100.034H227.962" stroke="black" stroke-width="0.75" stroke-miterlimit="10"/>
<path d="M241.874 110.966H227.962" stroke="black" stroke-width="0.75" stroke-miterlimit="10"/>
<path d="M238.212 121.884H227.962" stroke="black" stroke-width="0.75" stroke-miterlimit="10"/>
<path d="M238.212 102.443C239.543 102.443 240.621 101.364 240.621 100.034C240.621 98.7031 239.543 97.6244 238.212 97.6244C236.881 97.6244 235.803 98.7031 235.803 100.034C235.803 101.364 236.881 102.443 238.212 102.443Z" fill="white" stroke="black" stroke-width="0.75" stroke-miterlimit="10"/>
<path d="M241.875 113.375C243.205 113.375 244.284 112.297 244.284 110.966C244.284 109.635 243.205 108.557 241.875 108.557C240.544 108.557 239.465 109.635 239.465 110.966C239.465 112.297 240.544 113.375 241.875 113.375Z" fill="white" stroke="black" stroke-width="0.75" stroke-miterlimit="10"/>
<path d="M238.212 124.294C239.543 124.294 240.621 123.215 240.621 121.884C240.621 120.554 239.543 119.475 238.212 119.475C236.881 119.475 235.803 120.554 235.803 121.884C235.803 123.215 236.881 124.294 238.212 124.294Z" fill="white" stroke="black" stroke-width="0.75" stroke-miterlimit="10"/>
<path d="M178.718 121.884H188.968" stroke="black" stroke-width="0.75" stroke-miterlimit="10"/>
<path d="M175.055 110.966H188.968" stroke="black" stroke-width="0.75" stroke-miterlimit="10"/>
<path d="M178.718 100.034H188.968" stroke="black" stroke-width="0.75" stroke-miterlimit="10"/>
<path d="M178.718 124.294C180.048 124.294 181.127 123.215 181.127 121.884C181.127 120.554 180.048 119.475 178.718 119.475C177.387 119.475 176.309 120.554 176.309 121.884C176.309 123.215 177.387 124.294 178.718 124.294Z" fill="white" stroke="black" stroke-width="0.75" stroke-miterlimit="10"/>
<path d="M175.055 113.375C176.386 113.375 177.465 112.297 177.465 110.966C177.465 109.635 176.386 108.557 175.055 108.557C173.725 108.557 172.646 109.635 172.646 110.966C172.646 112.297 173.725 113.375 175.055 113.375Z" fill="white" stroke="black" stroke-width="0.75" stroke-miterlimit="10"/>
<path d="M178.718 102.443C180.048 102.443 181.127 101.364 181.127 100.034C181.127 98.7031 180.048 97.6244 178.718 97.6244C177.387 97.6244 176.309 98.7031 176.309 100.034C176.309 101.364 177.387 102.443 178.718 102.443Z" fill="white" stroke="black" stroke-width="0.75" stroke-miterlimit="10"/>
<path d="M228.129 91.4689H188.814V130.783H228.129V91.4689Z" fill="white" stroke="black" stroke-width="0.75" stroke-miterlimit="10"/>
<path d="M220.149 99.4348H196.78V122.803H220.149V99.4348Z" fill="#AED8F4"/>
<path d="M146.13 184.066V159.235H270.814V184.066H146.13ZM152.495 177.158V160.252C151.367 160.252 150.378 160.252 149.389 160.252C148.01 160.266 147.565 160.711 147.565 162.118C147.565 168.594 147.565 175.055 147.565 181.531C147.565 182.84 148.038 183.286 149.361 183.286C154.89 183.286 160.419 183.286 165.962 183.286C167.312 183.286 167.702 182.882 167.716 181.503C167.716 178.593 167.716 175.682 167.716 172.785C167.716 169.178 167.716 165.572 167.716 161.978C167.716 161.045 167.452 160.279 166.407 160.266C162.745 160.224 159.082 160.252 155.364 160.252V166.184C158.455 164.221 161.839 165.154 162.369 168.315C162.87 171.254 162.717 174.317 162.856 177.367H160.001C160.001 174.888 160.029 172.479 160.001 170.084C159.973 168.343 159.152 167.424 157.731 167.466C156.255 167.507 155.294 168.51 155.28 170.125C155.252 171.838 155.28 173.565 155.28 175.292C155.28 176.824 154.505 177.516 152.954 177.367C152.885 177.367 152.801 177.312 152.509 177.172L152.495 177.158ZM262.625 177.367C262.625 176.81 262.625 176.378 262.625 175.933C262.625 174.011 262.597 172.089 262.639 170.167C262.681 168.58 263.67 167.577 265.146 167.521C266.566 167.479 267.374 168.231 267.527 169.917C267.611 170.85 267.569 171.797 267.569 172.744C267.569 174.276 267.569 175.821 267.569 177.339H269.797C269.797 174.359 269.978 171.462 269.742 168.58C269.56 166.463 268.001 165.335 265.884 165.418C264.825 165.46 263.795 165.836 262.625 166.101V160.293H260.272V177.381H262.639L262.625 177.367ZM193.452 170.585C193.355 170.557 193.257 170.543 193.16 170.515V160.279H190.862V177.312H193.049C193.661 175.571 192.352 173.51 194.302 172.033C195.082 173.273 195.959 174.387 196.53 175.626C197.352 177.437 198.689 177.701 200.569 177.256C199.009 174.958 197.477 172.702 195.931 170.418C197.296 168.83 198.605 167.298 199.942 165.739C198.132 165.363 196.809 165.585 195.917 167.215C195.249 168.413 194.302 169.471 193.466 170.585H193.452ZM211.181 175.097C206.696 176.016 204.315 174.805 204.775 171.741H212.365C212.211 170.571 212.197 169.499 211.933 168.496C211.083 165.432 208.033 164.179 205.165 165.641C202.811 166.839 201.627 170.098 202.393 173.287C203.006 175.863 204.984 177.381 207.811 177.395C208.507 177.395 209.203 177.284 209.9 177.186C211.738 176.908 211.766 176.838 211.167 175.111L211.181 175.097ZM230.552 175.083C225.943 175.989 223.561 174.777 224.091 171.727H231.499C231.694 169.944 231.458 168.343 230.525 166.922C229.787 165.794 228.7 165.182 227.322 165.126C224.662 165.001 222.823 166.212 221.918 168.705C220.734 172.006 221.779 175.557 224.383 176.768C226.528 177.771 228.686 177.451 230.929 176.671C230.789 176.072 230.664 175.571 230.539 175.069L230.552 175.083ZM234.522 167.591C236.165 166.978 237.711 166.296 239.131 167.438C239.633 167.828 239.73 168.719 239.925 169.165C238.045 169.763 236.374 170.084 234.898 170.808C233.324 171.588 232.809 173.537 233.393 175.195C233.923 176.713 235.413 177.674 237.126 177.367C238.128 177.186 239.075 176.629 240.092 176.211C240.162 176.406 240.287 176.768 240.398 177.103H242.306C242.306 174.498 242.334 171.964 242.306 169.429C242.279 167.744 241.777 166.184 240.064 165.516C238.045 164.736 236.04 165.014 234.062 166.059C234.229 166.588 234.368 167.048 234.535 167.591H234.522ZM178.663 177.117C178.663 174.582 178.663 172.173 178.663 169.763C178.663 167.953 178.273 166.226 176.393 165.488C174.359 164.694 172.326 164.973 170.376 166.073C170.585 166.644 170.752 167.09 170.919 167.535C174.54 166.198 176.309 166.867 176.086 169.513C175.696 169.541 175.278 169.513 174.902 169.61C173.607 169.986 172.229 170.223 171.087 170.877C169.569 171.741 169.137 173.858 169.861 175.459C170.502 176.866 172.047 177.715 173.649 177.325C174.61 177.089 175.487 176.559 176.476 176.128C176.546 176.392 176.643 176.768 176.727 177.117H178.663ZM258.503 167.048V165.474C257.57 165.377 256.372 165.599 255.968 165.126C255.495 164.583 255.69 163.441 255.592 162.452C254.91 162.675 254.032 162.703 253.656 163.148C253.239 163.664 253.28 164.541 253.113 165.293C252.612 165.349 252.138 165.39 251.651 165.446V167.034C252.222 167.103 252.696 167.159 253.308 167.243C253.308 167.744 253.308 168.19 253.308 168.635C253.308 170.432 253.239 172.242 253.35 174.039C253.531 176.949 255.62 178.133 258.322 177.005V175.348C256.316 175.473 255.787 175.014 255.718 173.092C255.676 171.825 255.718 170.557 255.718 169.276C255.718 167.883 256.4 167.164 257.765 167.117C258.002 167.117 258.238 167.062 258.517 167.034L258.503 167.048ZM188.787 175.055C186.782 175.668 184.971 175.78 183.718 174.011C182.576 172.395 182.576 170.599 183.467 168.886C184.637 166.644 186.67 166.867 188.745 167.312C188.898 166.7 189.038 166.156 189.177 165.641C186.392 164.471 183.3 165.168 181.671 167.257C179.916 169.513 179.902 173.273 181.643 175.404C183.258 177.395 186.308 177.952 189.066 176.699C188.982 176.211 188.898 175.71 188.773 175.042L188.787 175.055ZM250.105 167.563V165.474C248.406 165.112 247.292 165.906 246.317 167.257C246.275 166.588 246.248 166.156 246.22 165.697H244.284V177.353H246.498C246.554 177.186 246.624 177.075 246.624 176.963C246.638 175.167 246.624 173.356 246.651 171.56C246.679 168.816 247.431 167.953 250.119 167.549L250.105 167.563ZM216.431 177.367C216.431 175.069 216.389 172.897 216.445 170.724C216.473 169.471 216.946 168.385 218.228 167.883C218.743 167.674 219.328 167.647 219.843 167.535V165.474C218.158 165.168 217.086 165.975 216.111 167.396C216.055 166.672 216.027 166.212 215.985 165.739H214.036V177.367H216.445H216.431Z" fill="white"/>
<path d="M152.495 177.158C152.801 177.284 152.871 177.339 152.94 177.353C154.491 177.511 155.266 176.819 155.266 175.278C155.266 173.551 155.252 171.838 155.266 170.112C155.28 168.496 156.241 167.493 157.717 167.452C159.138 167.41 159.959 168.329 159.987 170.07C160.015 172.479 159.987 174.874 159.987 177.353H162.842C162.703 174.303 162.842 171.254 162.355 168.301C161.825 165.14 158.441 164.207 155.35 166.17V160.238C159.068 160.238 162.731 160.21 166.393 160.252C167.452 160.252 167.716 161.032 167.702 161.965C167.688 165.572 167.702 169.179 167.702 172.772C167.702 175.682 167.702 178.593 167.702 181.49C167.702 182.868 167.298 183.258 165.948 183.272C160.419 183.272 154.89 183.272 149.347 183.272C148.01 183.272 147.551 182.812 147.551 181.517C147.551 175.042 147.551 168.58 147.551 162.104C147.551 160.697 147.996 160.252 149.375 160.238C150.364 160.224 151.353 160.238 152.481 160.238V177.144L152.495 177.158ZM163.928 179.206H151.325C151.353 179.623 151.367 179.972 151.394 180.334H163.928V179.206Z" fill="black"/>
<path d="M262.625 177.353H260.258V160.266H262.611V166.073C263.781 165.822 264.812 165.432 265.87 165.39C267.987 165.307 269.561 166.449 269.728 168.552C269.965 171.421 269.783 174.331 269.783 177.311H267.555C267.555 175.793 267.555 174.262 267.555 172.716C267.555 171.769 267.597 170.822 267.513 169.889C267.36 168.204 266.566 167.452 265.132 167.493C263.656 167.535 262.653 168.538 262.625 170.139C262.584 172.061 262.625 173.983 262.611 175.905C262.611 176.351 262.611 176.796 262.611 177.339L262.625 177.353Z" fill="black"/>
<path d="M193.452 170.571C194.274 169.457 195.235 168.412 195.903 167.201C196.809 165.571 198.132 165.335 199.928 165.725C198.591 167.284 197.282 168.816 195.917 170.404C197.463 172.688 198.995 174.944 200.555 177.242C198.689 177.687 197.352 177.423 196.516 175.612C195.945 174.373 195.068 173.259 194.288 172.019C192.338 173.51 193.661 175.557 193.035 177.298H190.848V160.266H193.146V170.501C193.244 170.529 193.341 170.543 193.438 170.571H193.452Z" fill="black"/>
<path d="M211.181 175.097C211.78 176.824 211.738 176.894 209.914 177.172C209.217 177.284 208.521 177.381 207.825 177.381C204.998 177.381 203.02 175.849 202.407 173.273C201.641 170.084 202.825 166.839 205.179 165.627C208.047 164.165 211.097 165.418 211.947 168.482C212.225 169.485 212.239 170.543 212.379 171.727H204.789C204.329 174.791 206.711 176.002 211.195 175.083L211.181 175.097ZM209.774 169.986C209.941 168.148 209.05 166.922 207.574 166.839C205.917 166.741 204.733 168.05 204.761 169.986H209.774Z" fill="black"/>
<path d="M230.552 175.083C230.678 175.585 230.789 176.086 230.942 176.685C228.7 177.465 226.542 177.785 224.397 176.782C221.793 175.557 220.734 172.006 221.932 168.719C222.837 166.226 224.662 165.014 227.335 165.14C228.714 165.196 229.814 165.808 230.538 166.936C231.472 168.357 231.708 169.958 231.513 171.741H224.104C223.575 174.805 225.957 176.016 230.566 175.097L230.552 175.083ZM229.104 169.986C229.285 168.775 228.979 167.716 227.948 167.229C227.266 166.908 226.235 166.881 225.539 167.159C224.411 167.605 224.049 168.733 223.91 169.986H229.104Z" fill="black"/>
<path d="M234.521 167.577C234.354 167.034 234.215 166.574 234.048 166.045C236.039 165.001 238.031 164.708 240.05 165.502C241.763 166.17 242.279 167.716 242.292 169.415C242.334 171.95 242.292 174.484 242.292 177.089H240.385C240.273 176.754 240.148 176.392 240.078 176.197C239.062 176.615 238.115 177.172 237.112 177.353C235.399 177.66 233.923 176.699 233.38 175.181C232.795 173.524 233.31 171.56 234.884 170.794C236.36 170.07 238.031 169.749 239.911 169.151C239.716 168.691 239.619 167.814 239.117 167.424C237.697 166.296 236.151 166.964 234.508 167.577H234.521ZM239.883 171.1C238.867 171.281 238.003 171.323 237.209 171.588C235.984 171.978 235.385 173.022 235.636 174.15C235.858 175.167 236.527 175.682 237.585 175.626C238.797 175.571 239.772 174.665 239.883 173.468C239.939 172.785 239.883 172.089 239.883 171.114V171.1Z" fill="black"/>
<path d="M178.677 177.103H176.741C176.657 176.755 176.56 176.378 176.49 176.114C175.501 176.546 174.624 177.075 173.663 177.312C172.062 177.702 170.516 176.852 169.875 175.445C169.151 173.844 169.569 171.727 171.101 170.864C172.243 170.223 173.635 169.972 174.916 169.596C175.292 169.485 175.71 169.527 176.1 169.499C176.323 166.853 174.554 166.184 170.934 167.521C170.766 167.076 170.599 166.63 170.39 166.059C172.34 164.973 174.373 164.694 176.407 165.474C178.301 166.212 178.663 167.939 178.677 169.75C178.691 172.159 178.677 174.568 178.677 177.103ZM176.365 171.059C175.195 171.267 174.29 171.323 173.454 171.602C172.368 171.964 171.811 172.827 171.95 173.997C172.075 174.958 172.646 175.543 173.663 175.613C174.735 175.682 175.877 174.972 176.114 173.927C176.295 173.106 176.267 172.242 176.365 171.059Z" fill="black"/>
<path d="M258.503 167.034C258.224 167.062 257.988 167.103 257.751 167.117C256.386 167.164 255.704 167.883 255.704 169.276C255.704 170.543 255.676 171.811 255.704 173.092C255.773 175.014 256.289 175.459 258.308 175.348V177.005C255.606 178.119 253.517 176.936 253.336 174.039C253.225 172.242 253.308 170.432 253.294 168.635C253.294 168.19 253.294 167.758 253.294 167.243C252.696 167.173 252.208 167.103 251.637 167.034V165.446C252.125 165.391 252.598 165.349 253.099 165.293C253.267 164.541 253.225 163.664 253.643 163.148C254.005 162.703 254.896 162.675 255.578 162.452C255.69 163.441 255.481 164.583 255.954 165.126C256.358 165.585 257.556 165.377 258.489 165.474V167.048L258.503 167.034Z" fill="black"/>
<path d="M188.787 175.042C188.898 175.696 188.996 176.211 189.079 176.699C186.322 177.952 183.272 177.395 181.657 175.404C179.93 173.273 179.944 169.513 181.684 167.257C183.3 165.168 186.392 164.471 189.191 165.641C189.052 166.156 188.912 166.7 188.759 167.312C186.684 166.867 184.637 166.63 183.481 168.886C182.59 170.599 182.59 172.396 183.732 174.011C184.985 175.78 186.795 175.654 188.801 175.055L188.787 175.042Z" fill="black"/>
<path d="M250.105 167.549C247.417 167.953 246.679 168.816 246.638 171.56C246.61 173.356 246.624 175.167 246.61 176.963C246.61 177.075 246.54 177.2 246.484 177.353H244.27V165.697H246.206C246.234 166.142 246.262 166.588 246.303 167.257C247.278 165.906 248.392 165.112 250.091 165.474V167.563L250.105 167.549Z" fill="black"/>
<path d="M216.431 177.353H214.022V165.725H215.972C216.013 166.198 216.041 166.658 216.097 167.382C217.072 165.961 218.144 165.154 219.829 165.46V167.521C219.314 167.633 218.729 167.66 218.214 167.869C216.933 168.371 216.459 169.457 216.431 170.71C216.376 172.883 216.417 175.055 216.417 177.353H216.431Z" fill="black"/>
<path d="M163.928 179.206V180.334H151.394C151.366 179.972 151.353 179.637 151.325 179.206H163.928Z" fill="white"/>
<path d="M209.774 169.972H204.761C204.733 168.05 205.931 166.741 207.574 166.825C209.05 166.909 209.927 168.134 209.774 169.972Z" fill="white"/>
<path d="M229.104 169.986H223.91C224.049 168.747 224.397 167.619 225.539 167.159C226.235 166.881 227.28 166.908 227.948 167.229C228.965 167.716 229.285 168.775 229.104 169.986Z" fill="white"/>
<path d="M239.883 171.114C239.883 172.103 239.939 172.785 239.883 173.468C239.772 174.666 238.811 175.571 237.586 175.626C236.527 175.682 235.859 175.167 235.636 174.15C235.385 173.022 235.984 171.992 237.209 171.588C238.003 171.337 238.867 171.281 239.883 171.1V171.114Z" fill="white"/>
<path d="M176.351 171.059C176.253 172.242 176.295 173.106 176.1 173.927C175.863 174.972 174.721 175.682 173.649 175.613C172.633 175.543 172.062 174.958 171.936 173.997C171.783 172.827 172.354 171.978 173.44 171.602C174.276 171.323 175.181 171.267 176.351 171.059Z" fill="white"/>
<path d="M101.691 190.249H61.5272L41.4453 225.038L61.5272 259.812H101.691L121.773 225.038L101.691 190.249Z" fill="#AED8F4"/>
<path d="M95.4519 179.387H55.288L35.2061 214.161L55.288 248.949H95.4519L115.534 214.161L95.4519 179.387Z" fill="white"/>
<path d="M73.5599 208.716C75.7827 208.716 77.5846 206.914 77.5846 204.691C77.5846 202.468 75.7827 200.666 73.5599 200.666C71.3371 200.666 69.5352 202.468 69.5352 204.691C69.5352 206.914 71.3371 208.716 73.5599 208.716Z" stroke="black" stroke-width="0.75" stroke-linejoin="round"/>
<path d="M82.2777 219.885C82.2777 215.066 78.3783 211.167 73.5598 211.167C68.7412 211.167 64.8418 215.066 64.8418 219.885H82.2777Z" stroke="black" stroke-width="0.75" stroke-linejoin="round"/>
<path d="M73.5596 230.97C84.0507 230.97 92.5553 222.465 92.5553 211.974C92.5553 201.483 84.0507 192.979 73.5596 192.979C63.0686 192.979 54.564 201.483 54.564 211.974C54.564 222.465 63.0686 230.97 73.5596 230.97Z" stroke="black" stroke-width="0.75" stroke-linejoin="round"/>
<path d="M94.4212 235.789L85.5083 226.876" stroke="black" stroke-width="0.75" stroke-linejoin="round"/>
<path d="M85.4524 107.749C99.8583 107.749 111.537 96.0706 111.537 81.6647C111.537 67.2588 99.8583 55.5804 85.4524 55.5804C71.0465 55.5804 59.3682 67.2588 59.3682 81.6647C59.3682 96.0706 71.0465 107.749 85.4524 107.749Z" fill="#AED8F4"/>
<path d="M78.4197 101.663C92.8256 101.663 104.504 89.9848 104.504 75.5789C104.504 61.1729 92.8256 49.4946 78.4197 49.4946C64.0138 49.4946 52.3354 61.1729 52.3354 75.5789C52.3354 89.9848 64.0138 101.663 78.4197 101.663Z" fill="#E8F3FF"/>
<path d="M91.5663 74.4369L79.4224 62.307L67.2925 74.4369H74.4507V87.8203H84.9094V74.4369H91.5663Z" stroke="black" stroke-width="0.75" stroke-linejoin="round"/>
<path d="M360.625 96.9978H319.375V138.248H360.625V96.9978Z" fill="#AED8F4"/>
<path d="M354.748 91.0233H313.498V132.273H354.748V91.0233Z" fill="#E8F3FF"/>
<path d="M328.232 102.443H340" stroke="black" stroke-width="0.75" stroke-linejoin="round"/>
<path d="M328.232 108.153H340" stroke="black" stroke-width="0.75" stroke-linejoin="round"/>
<path d="M330.029 102.443C334.123 102.22 337.284 104.114 337.27 108.236C337.257 113.974 330.85 113.403 328.511 113.403L336.505 120.868" stroke="black" stroke-width="0.75" stroke-linejoin="round"/>
<path d="M360.263 157.745H320.294V197.714H360.263V157.745Z" fill="#AED8F4"/>
<path d="M353.467 151.548H313.498V191.517H353.467V151.548Z" fill="#E8F3FF"/>
<path d="M337.605 165.251C336.574 164.694 335.348 164.318 334.179 164.29C332.215 164.249 329.806 165.767 330.126 167.995C330.419 170.098 332.73 170.724 334.374 171.463C335.335 171.894 336.282 172.423 336.922 173.245C338.008 174.638 337.702 176.574 336.435 177.729C334.513 179.484 331.505 178.621 329.374 177.813" stroke="black" stroke-width="0.75" stroke-linejoin="round"/>
<path d="M333.691 161.268V164.29" stroke="black" stroke-width="0.75" stroke-linejoin="round"/>
<path d="M333.691 178.76V181.796" stroke="black" stroke-width="0.75" stroke-linejoin="round"/>
<path d="M360.625 222.642H319.486V263.781H360.625V222.642Z" fill="#AED8F4"/>
<path d="M354.637 215.888H313.498V257.027H354.637V215.888Z" fill="#E8F3FF"/>
<path d="M339.025 228.422C339.025 228.422 333.259 225.901 331.936 231.472C331.31 234.159 332.772 236.694 332.563 239.354C332.424 241.081 331.728 242.738 330.377 243.852C329.736 244.381 328.97 244.771 328.176 245.05H339.916" stroke="black" stroke-width="0.75" stroke-linejoin="round"/>
<path d="M328.343 236.457H337.507" stroke="black" stroke-width="0.75" stroke-linejoin="round"/>
</g>
<defs>
<clipPath id="clip0_1404_4161">
<rect width="412" height="318.776" fill="white"/>
</clipPath>
</defs>
</svg>
