<svg width="24" height="24" viewBox="0 0 24 24" fill="none" xmlns="http://www.w3.org/2000/svg">
<path d="M7.71 17.7098L16 9.4198V14.9998C16 15.265 16.1054 15.5194 16.2929 15.7069C16.4804 15.8944 16.7348 15.9998 17 15.9998C17.2652 15.9998 17.5196 15.8944 17.7071 15.7069C17.8946 15.5194 18 15.265 18 14.9998V7.0498C18 6.78459 17.8946 6.53023 17.7071 6.3427C17.5196 6.15516 17.2652 6.0498 17 6.0498L9 6.0498C8.73478 6.0498 8.48043 6.15516 8.29289 6.3427C8.10536 6.53023 8 6.78459 8 7.0498V6.9998C8 7.26502 8.10536 7.51937 8.29289 7.70691C8.48043 7.89445 8.73478 7.9998 9 7.9998L14.55 7.9998L6.29 16.2598C6.19627 16.3528 6.12188 16.4634 6.07111 16.5852C6.02034 16.7071 5.9942 16.8378 5.9942 16.9698C5.9942 17.1018 6.02034 17.2325 6.07111 17.3544C6.12188 17.4762 6.19627 17.5868 6.29 17.6798C6.38097 17.7755 6.48999 17.8523 6.61078 17.9056C6.73157 17.959 6.86173 17.9879 6.99375 17.9907C7.12577 17.9935 7.25703 17.9701 7.37997 17.9219C7.5029 17.8737 7.61507 17.8016 7.71 17.7098Z" fill="black"/>
</svg>
