<svg width="412" height="319" viewBox="0 0 412 319" fill="none" xmlns="http://www.w3.org/2000/svg">
<g clip-path="url(#clip0_1414_8137)">
<path d="M407.488 0H4.51217C2.02017 0 0 2.02017 0 4.51217V314.264C0 316.756 2.02017 318.776 4.51217 318.776H407.488C409.98 318.776 412 316.756 412 314.264V4.51217C412 2.02017 409.98 0 407.488 0Z" fill="#EDD9DB"/>
<path d="M399.438 15.6116V306.66H14.7759" stroke="black" stroke-width="0.25" stroke-miterlimit="10"/>
<path d="M327.815 35.3871H68.7273C66.4198 35.3871 64.5493 37.2576 64.5493 39.565V229.619C64.5493 231.927 66.4198 233.797 68.7273 233.797H327.815C330.122 233.797 331.993 231.927 331.993 229.619V39.565C331.993 37.2576 330.122 35.3871 327.815 35.3871Z" fill="white" stroke="black" stroke-width="0.75" stroke-miterlimit="10"/>
<path d="M377.56 224.675C377.56 220.372 374.037 216.682 369.733 216.682C365.541 216.682 362.13 219.954 361.907 224.09V215.052C361.907 210.735 358.397 207.226 354.08 207.226C349.763 207.226 346.253 210.735 346.253 215.052V205.596C346.253 201.279 342.744 197.769 338.427 197.769C334.109 197.769 330.6 201.279 330.6 205.596V179.93C330.6 175.612 327.091 172.103 322.773 172.103C318.456 172.103 314.947 175.612 314.947 179.93V233.115L305.63 223.812C303.026 221.208 298.89 220.901 295.937 223.116C292.845 225.427 292.038 229.731 294.085 233.003C296.09 236.206 298.639 240.621 300.978 244.771C304.349 250.746 307.05 257.054 309 263.628C311.939 273.488 320.267 290.283 343.064 291.383C362.13 292.302 377.546 275.521 377.546 256.372V224.703L377.56 224.675Z" fill="#EFC5CB"/>
<path d="M366.502 214.69C366.502 210.387 362.979 206.696 358.676 206.696C354.484 206.696 351.072 209.969 350.849 214.105V205.067C350.849 200.75 347.34 197.24 343.022 197.24C338.705 197.24 335.196 200.75 335.196 205.067V195.611C335.196 191.294 331.686 187.784 327.369 187.784C323.052 187.784 319.542 191.294 319.542 195.611V169.944C319.542 165.627 316.033 162.118 311.716 162.118C307.399 162.118 303.889 165.627 303.889 169.944V223.13L294.572 213.827C291.968 211.222 287.832 210.916 284.879 213.13C281.788 215.442 280.98 219.745 283.027 223.018C285.033 226.221 287.581 230.636 289.921 234.786C293.291 240.76 295.993 247.069 297.943 253.642C300.881 263.502 309.209 280.298 332.007 281.398C351.072 282.317 366.488 265.536 366.488 246.387V214.718L366.502 214.69Z" fill="white" stroke="black" stroke-width="0.75" stroke-miterlimit="10"/>
<path d="M309.362 79.4504C309.362 79.4504 309.376 79.4365 309.39 79.4225C309.39 79.4225 309.418 79.4086 309.418 79.3947C309.459 79.3529 309.501 79.3251 309.515 79.2693L311.799 73.6988C311.883 73.6152 311.91 73.4759 311.869 73.3506L309.251 66.5684L313.289 62.5019L320.044 65.134C320.044 65.134 320.127 65.1619 320.169 65.1619C320.211 65.1619 320.252 65.1619 320.294 65.134L325.99 62.7526C325.99 62.7526 326.004 62.7526 326.018 62.7387C326.018 62.7387 326.046 62.7247 326.06 62.7108C326.102 62.6829 326.143 62.6412 326.157 62.5994L329.068 55.9704H334.792L337.73 62.5994C337.758 62.6412 337.786 62.6829 337.828 62.7108C337.828 62.7108 337.855 62.7247 337.869 62.7387C337.869 62.7387 337.883 62.7526 337.897 62.7526L343.593 65.134C343.593 65.134 343.677 65.1619 343.718 65.1619C343.76 65.1619 343.802 65.1619 343.844 65.134L350.626 62.5019L354.665 66.5684L352.046 73.3506C352.046 73.3506 352.046 73.3785 352.046 73.4063C352.046 73.4342 352.046 73.4481 352.046 73.4759C352.046 73.5038 352.047 73.5317 352.06 73.5456C352.06 73.5595 352.06 73.5734 352.06 73.5874L354.386 79.2415C354.414 79.2972 354.442 79.339 354.484 79.3668C354.484 79.3668 354.511 79.3808 354.511 79.3947C354.511 79.3947 354.525 79.4086 354.539 79.4225L361.196 82.3332V88.0569L354.539 90.9954C354.539 90.9954 354.539 90.9954 354.511 91.0093C354.484 91.0233 354.456 91.0372 354.428 91.065C354.428 91.079 354.4 91.0929 354.4 91.1208C354.4 91.1347 354.372 91.1486 354.358 91.1765L352.088 96.747L352.033 96.8863C352.033 96.8863 352.033 96.9142 352.033 96.942C352.033 96.9699 352.033 96.9838 352.033 97.0116C352.033 97.0116 352.033 97.0534 352.033 97.0673C352.033 97.0673 352.033 97.0813 352.033 97.0952C352.033 97.1091 352.033 97.1231 352.033 97.137L354.651 103.863L350.612 107.93L343.844 105.298C343.844 105.298 343.802 105.298 343.774 105.284C343.76 105.284 343.732 105.284 343.718 105.284C343.691 105.284 343.663 105.284 343.621 105.298C343.621 105.298 343.593 105.298 343.579 105.298L337.897 107.665C337.883 107.665 337.855 107.693 337.842 107.693C337.828 107.693 337.8 107.707 337.786 107.721C337.786 107.721 337.772 107.749 337.758 107.763C337.758 107.763 337.744 107.777 337.73 107.791C337.73 107.791 337.73 107.805 337.716 107.819L334.778 114.448H329.054L326.143 107.819C326.143 107.819 326.143 107.805 326.129 107.791C326.129 107.791 326.129 107.777 326.115 107.763C326.115 107.763 326.102 107.735 326.088 107.721C326.088 107.721 326.06 107.693 326.032 107.693C326.018 107.693 326.004 107.665 325.976 107.651L320.294 105.27C320.294 105.27 320.266 105.27 320.252 105.27C320.225 105.27 320.197 105.256 320.155 105.256C320.155 105.256 320.113 105.256 320.085 105.256C320.071 105.256 320.057 105.256 320.044 105.256L313.289 107.888L309.251 103.822L311.799 97.1927C311.883 97.0952 311.91 96.9699 311.855 96.8445L309.501 91.1208C309.501 91.1208 309.473 91.079 309.459 91.065C309.459 91.0511 309.446 91.0233 309.432 91.0093C309.404 90.9815 309.376 90.9676 309.348 90.9536C309.348 90.9536 309.348 90.9536 309.334 90.9536L302.677 88.0152V82.2914L309.334 79.3808L309.362 79.4504Z" fill="white" stroke="black" stroke-width="0.75" stroke-miterlimit="10"/>
<path d="M331.978 94.2403C336.947 94.2403 340.975 90.2124 340.975 85.2438C340.975 80.2752 336.947 76.2473 331.978 76.2473C327.01 76.2473 322.982 80.2752 322.982 85.2438C322.982 90.2124 327.01 94.2403 331.978 94.2403Z" fill="white" stroke="black" stroke-width="0.75" stroke-miterlimit="10"/>
<path d="M164.249 97.3737H90.0347V104.281H164.249V97.3737Z" fill="#EFC5CB"/>
<path d="M116.091 61.5967V103.529H122.72V61.5967H116.091Z" fill="#EFC5CB"/>
<path d="M132.539 72.1112V103.529H139.627V72.1112H132.539Z" fill="#EFC5CB"/>
<path d="M149.222 66.2064V103.529H156.311V66.2064H149.222Z" fill="#EFC5CB"/>
<path d="M99.5884 82.556V103.529H105.855V82.556H99.5884Z" fill="#EFC5CB"/>
<path d="M82.5283 127.524H307.705" stroke="black" stroke-width="0.75" stroke-miterlimit="10"/>
<path d="M127.148 209.76C144.646 209.76 158.831 195.575 158.831 178.078C158.831 160.58 144.646 146.395 127.148 146.395C109.651 146.395 95.4658 160.58 95.4658 178.078C95.4658 195.575 109.651 209.76 127.148 209.76Z" fill="white" stroke="black" stroke-width="0.75" stroke-miterlimit="10"/>
<path d="M126.327 146.409V178.078L157.104 167.758" stroke="black" stroke-width="0.75" stroke-linejoin="round"/>
<path d="M132.245 209.342L126.327 178.078L148.581 201.404" stroke="black" stroke-width="0.75" stroke-linejoin="round"/>
<path d="M181.211 174.958H175.724V183.62H181.211V174.958Z" fill="#EFC5CB"/>
<path d="M197.018 178.203H191.531V194.803H197.018V178.203Z" fill="#EFC5CB"/>
<path d="M244.451 167.73H238.964V184.33H244.451V167.73Z" fill="#EFC5CB"/>
<path d="M228.645 172.604H223.158V179.735H228.645V172.604Z" fill="#EFC5CB"/>
<path d="M290.381 175.724H284.894V182.854H290.381V175.724Z" fill="#EFC5CB"/>
<path d="M212.824 164.471H207.337V187.603H212.824V164.471Z" fill="#EFC5CB"/>
<path d="M276.078 164.471H270.591V187.603H276.078V164.471Z" fill="#EFC5CB"/>
<path d="M260.258 161.366H254.771V180.152H260.258V161.366Z" fill="#EFC5CB"/>
<path d="M177.841 178.203L193.452 186.503L210.094 167.034L225.483 174.958L257.528 163.441L273.334 167.73L287.428 177.855" stroke="black" stroke-width="0.75" stroke-linejoin="round"/>
<path d="M271.538 66.8191H187.687V73.8519H271.538V66.8191Z" fill="#EFC5CB"/>
<path d="M271.538 81.7204H187.687V88.7533H271.538V81.7204Z" fill="#EFC5CB"/>
<path d="M271.538 96.6217H187.687V103.655H271.538V96.6217Z" fill="#EFC5CB"/>
<path d="M95.9948 227.224H45.6089V277.61H95.9948V227.224Z" fill="#EFC5CB"/>
<path d="M88.8087 219.926H38.4229V270.312H88.8087V219.926Z" fill="#FFE8EB"/>
<path d="M56.4297 233.867H70.8018" stroke="black" stroke-width="0.75" stroke-linejoin="round"/>
<path d="M56.4297 240.83H70.8018" stroke="black" stroke-width="0.75" stroke-linejoin="round"/>
<path d="M58.6161 233.867C63.6157 233.602 67.4733 235.914 67.4733 240.941C67.4594 247.96 59.6328 247.264 56.7778 247.264L66.5542 256.386" stroke="black" stroke-width="0.75" stroke-linejoin="round"/>
<path d="M170.696 227.489H121.87V276.315H170.696V227.489Z" fill="#EFC5CB"/>
<path d="M162.382 219.926H113.556V268.753H162.382V219.926Z" fill="#FFE8EB"/>
<path d="M143.011 236.652C141.743 235.97 140.267 235.51 138.819 235.482C136.424 235.427 133.485 237.279 133.875 240.008C134.237 242.585 137.05 243.351 139.056 244.242C140.225 244.757 141.381 245.412 142.175 246.428C143.498 248.128 143.136 250.509 141.576 251.916C139.223 254.046 135.56 253.002 132.942 252.027" stroke="black" stroke-width="0.75" stroke-linejoin="round"/>
<path d="M138.234 231.792V235.496" stroke="black" stroke-width="0.75" stroke-linejoin="round"/>
<path d="M138.234 253.169V256.873" stroke="black" stroke-width="0.75" stroke-linejoin="round"/>
<path d="M245.008 227.934H196.182V276.76H245.008V227.934Z" fill="#EFC5CB"/>
<path d="M237.892 219.926H189.065V268.753H237.892V219.926Z" fill="#FFE8EB"/>
<path d="M219.383 234.8C219.383 234.8 212.531 231.806 210.972 238.421C210.22 241.61 211.974 244.618 211.724 247.765C211.557 249.813 210.735 251.79 209.119 253.113C208.353 253.754 207.448 254.213 206.515 254.534H220.456" stroke="black" stroke-width="0.75" stroke-linejoin="round"/>
<path d="M206.696 244.34H217.573" stroke="black" stroke-width="0.75" stroke-linejoin="round"/>
</g>
<defs>
<clipPath id="clip0_1414_8137">
<rect width="412" height="318.776" fill="white"/>
</clipPath>
</defs>
</svg>
