<?xml version="1.0" encoding="UTF-8"?> <svg xmlns="http://www.w3.org/2000/svg" width="450" height="500" viewBox="0 0 450 500" fill="none"><mask id="mask0_271_1578" style="mask-type:alpha" maskUnits="userSpaceOnUse" x="0" y="0" width="450" height="500"><rect width="450" height="500" fill="#D9D9D9"></rect></mask><g mask="url(#mask0_271_1578)"><rect x="126" width="252" height="426" fill="white"></rect><path d="M356.429 29.7895V27.4737C356.429 26.5524 356.067 25.6689 355.424 25.0174C354.781 24.366 353.909 24 353 24C352.091 24 351.219 24.366 350.576 25.0174C349.933 25.6689 349.571 26.5524 349.571 27.4737V29.7895H345V46H361V29.7895H356.429ZM351.857 27.4737C351.857 27.1666 351.978 26.8721 352.192 26.6549C352.406 26.4378 352.697 26.3158 353 26.3158C353.303 26.3158 353.594 26.4378 353.808 26.6549C354.022 26.8721 354.143 27.1666 354.143 27.4737V29.7895H351.857V27.4737ZM358.714 43.6842H347.286V32.1053H349.571V34.4211H351.857V32.1053H354.143V34.4211H356.429V32.1053H358.714V43.6842Z" fill="black"></path><g filter="url(#filter0_bd_271_1578)"><rect x="255" y="401" width="160" height="46" fill="#EB440F"></rect></g><path d="M296.572 431.285C295.204 431.285 294.023 430.987 293.028 430.392C292.04 429.797 291.277 428.964 290.739 427.893C290.207 426.823 289.941 425.579 289.941 424.16C289.941 422.741 290.207 421.497 290.739 420.426C291.277 419.356 292.04 418.523 293.028 417.928C294.023 417.333 295.204 417.035 296.572 417.035C298.142 417.035 299.46 417.424 300.524 418.203C301.594 418.982 302.348 420.037 302.785 421.367L300.182 422.089C299.928 421.259 299.501 420.616 298.899 420.16C298.298 419.698 297.522 419.467 296.572 419.467C295.704 419.467 294.979 419.66 294.396 420.047C293.82 420.433 293.386 420.977 293.095 421.68C292.803 422.383 292.658 423.21 292.658 424.16C292.658 425.11 292.803 425.936 293.095 426.639C293.386 427.342 293.82 427.887 294.396 428.273C294.979 428.66 295.704 428.853 296.572 428.853C297.522 428.853 298.298 428.622 298.899 428.159C299.501 427.697 299.928 427.054 300.182 426.231L302.785 426.953C302.348 428.283 301.594 429.337 300.524 430.116C299.46 430.896 298.142 431.285 296.572 431.285ZM311.868 431V426.155C311.868 425.921 311.856 425.623 311.83 425.262C311.805 424.895 311.726 424.527 311.593 424.16C311.46 423.793 311.241 423.485 310.937 423.238C310.64 422.991 310.215 422.868 309.664 422.868C309.443 422.868 309.205 422.903 308.952 422.972C308.699 423.042 308.461 423.178 308.239 423.381C308.018 423.577 307.834 423.869 307.688 424.255C307.549 424.641 307.479 425.154 307.479 425.794L305.997 425.091C305.997 424.28 306.162 423.52 306.491 422.811C306.821 422.102 307.315 421.528 307.973 421.091C308.638 420.654 309.474 420.436 310.481 420.436C311.286 420.436 311.941 420.572 312.448 420.844C312.955 421.117 313.347 421.462 313.626 421.88C313.911 422.298 314.114 422.735 314.234 423.191C314.354 423.641 314.427 424.052 314.452 424.426C314.478 424.8 314.49 425.072 314.49 425.243V431H311.868ZM304.857 431V417.32H307.156V424.35H307.479V431H304.857ZM321.725 431.285C320.673 431.285 319.745 431.06 318.941 430.61C318.143 430.154 317.516 429.531 317.06 428.739C316.61 427.941 316.386 427.029 316.386 426.003C316.386 424.882 316.607 423.907 317.051 423.077C317.494 422.247 318.105 421.604 318.884 421.148C319.663 420.686 320.559 420.455 321.573 420.455C322.649 420.455 323.564 420.708 324.318 421.215C325.072 421.722 325.629 422.434 325.99 423.352C326.351 424.271 326.478 425.351 326.37 426.592H323.815V425.642C323.815 424.597 323.647 423.846 323.311 423.39C322.982 422.928 322.44 422.697 321.687 422.697C320.806 422.697 320.157 422.966 319.739 423.504C319.327 424.036 319.122 424.825 319.122 425.87C319.122 426.826 319.327 427.567 319.739 428.093C320.157 428.612 320.768 428.872 321.573 428.872C322.079 428.872 322.513 428.761 322.874 428.539C323.235 428.318 323.511 427.998 323.701 427.58L326.285 428.321C325.898 429.258 325.287 429.987 324.451 430.506C323.621 431.025 322.713 431.285 321.725 431.285ZM318.324 426.592V424.673H325.126V426.592H318.324ZM333.037 431.285C331.973 431.285 331.061 431.048 330.301 430.572C329.541 430.097 328.958 429.451 328.553 428.634C328.148 427.817 327.945 426.896 327.945 425.87C327.945 424.831 328.154 423.903 328.572 423.086C328.996 422.269 329.592 421.627 330.358 421.158C331.124 420.689 332.03 420.455 333.075 420.455C334.285 420.455 335.298 420.762 336.115 421.376C336.938 421.984 337.464 422.817 337.692 423.875L335.108 424.559C334.956 424.027 334.69 423.612 334.31 423.314C333.936 423.017 333.512 422.868 333.037 422.868C332.492 422.868 332.046 423.001 331.698 423.267C331.349 423.527 331.093 423.884 330.928 424.34C330.763 424.79 330.681 425.3 330.681 425.87C330.681 426.763 330.877 427.488 331.27 428.045C331.669 428.596 332.258 428.872 333.037 428.872C333.62 428.872 334.063 428.739 334.367 428.473C334.671 428.207 334.899 427.827 335.051 427.333L337.692 427.884C337.401 428.973 336.85 429.812 336.039 430.401C335.228 430.991 334.228 431.285 333.037 431.285ZM339.573 431L339.592 417.32H342.214V425.68L345.691 420.74H348.883L345.178 425.87L349.13 431H345.767L342.214 426.06V431H339.573ZM354.507 431.285C353.475 431.285 352.569 431.054 351.79 430.591C351.011 430.129 350.403 429.493 349.966 428.682C349.535 427.865 349.32 426.928 349.32 425.87C349.32 424.8 349.542 423.859 349.985 423.048C350.428 422.231 351.04 421.595 351.819 421.139C352.598 420.683 353.494 420.455 354.507 420.455C355.539 420.455 356.445 420.686 357.224 421.148C358.009 421.611 358.621 422.25 359.058 423.067C359.495 423.878 359.713 424.812 359.713 425.87C359.713 426.934 359.491 427.874 359.048 428.691C358.611 429.502 358 430.139 357.215 430.601C356.436 431.057 355.533 431.285 354.507 431.285ZM354.507 428.872C355.337 428.872 355.954 428.593 356.36 428.036C356.771 427.472 356.977 426.75 356.977 425.87C356.977 424.958 356.768 424.23 356.35 423.685C355.938 423.14 355.324 422.868 354.507 422.868C353.943 422.868 353.481 422.995 353.12 423.248C352.759 423.501 352.49 423.853 352.313 424.302C352.142 424.752 352.056 425.275 352.056 425.87C352.056 426.788 352.262 427.52 352.674 428.064C353.092 428.603 353.703 428.872 354.507 428.872ZM365.621 431.304C364.817 431.304 364.161 431.168 363.655 430.895C363.148 430.623 362.752 430.278 362.467 429.86C362.189 429.442 361.989 429.008 361.869 428.559C361.748 428.102 361.676 427.688 361.65 427.314C361.625 426.94 361.612 426.668 361.612 426.497V420.74H364.234V425.585C364.234 425.819 364.247 426.12 364.272 426.487C364.298 426.848 364.377 427.213 364.51 427.58C364.643 427.947 364.858 428.254 365.156 428.501C365.46 428.748 365.887 428.872 366.438 428.872C366.66 428.872 366.897 428.837 367.151 428.767C367.404 428.698 367.642 428.565 367.863 428.368C368.085 428.166 368.265 427.871 368.405 427.485C368.55 427.092 368.623 426.579 368.623 425.946L370.105 426.649C370.105 427.46 369.941 428.22 369.611 428.929C369.282 429.638 368.785 430.211 368.12 430.648C367.461 431.086 366.628 431.304 365.621 431.304ZM368.946 431V427.599H368.623V420.74H371.226V431H368.946ZM380.037 431C379.328 431.133 378.631 431.19 377.947 431.171C377.27 431.158 376.662 431.041 376.123 430.819C375.591 430.591 375.186 430.227 374.907 429.727C374.654 429.258 374.521 428.783 374.508 428.302C374.496 427.814 374.489 427.263 374.489 426.649V417.89H377.073V426.497C377.073 426.896 377.077 427.257 377.083 427.58C377.096 427.897 377.162 428.15 377.282 428.34C377.51 428.701 377.875 428.897 378.375 428.929C378.875 428.961 379.429 428.935 380.037 428.853V431ZM372.741 422.735V420.74H380.037V422.735H372.741Z" fill="#F9F9F9"></path><path d="M399.828 425.27L439.035 456.11L415.782 462.63L395.09 474.928L399.828 425.27Z" fill="#F9F9F9"></path><rect x="408.992" y="458.873" width="9.60051" height="36.4842" transform="rotate(-23.1807 408.992 458.873)" fill="#F9F9F9"></rect><rect x="150" y="29" width="12" height="12" fill="#131313"></rect><rect x="150" y="67" width="213" height="2" fill="#131313"></rect><rect x="288.5" y="94.5" width="74" height="27" stroke="black"></rect><path d="M301 108L295 108" stroke="black"></path><path d="M355 108L349 108" stroke="black"></path><path d="M352 105V111" stroke="black"></path><path d="M322.271 113V112.233L325.151 109.08C325.489 108.71 325.768 108.389 325.987 108.116C326.205 107.841 326.367 107.582 326.472 107.341C326.58 107.097 326.634 106.841 326.634 106.574C326.634 106.267 326.56 106.001 326.413 105.777C326.268 105.553 326.069 105.379 325.816 105.257C325.563 105.135 325.279 105.074 324.964 105.074C324.629 105.074 324.336 105.143 324.086 105.283C323.839 105.419 323.647 105.611 323.511 105.858C323.377 106.105 323.31 106.395 323.31 106.727H322.305C322.305 106.216 322.423 105.767 322.658 105.381C322.894 104.994 323.215 104.693 323.621 104.477C324.031 104.261 324.489 104.153 324.998 104.153C325.509 104.153 325.962 104.261 326.357 104.477C326.752 104.693 327.062 104.984 327.286 105.351C327.511 105.717 327.623 106.125 327.623 106.574C327.623 106.895 327.565 107.209 327.448 107.516C327.335 107.82 327.136 108.159 326.852 108.534C326.57 108.906 326.18 109.361 325.68 109.898L323.719 111.994V112.062H327.776V113H322.271Z" fill="black"></path><path d="M150.83 106.455C150.778 106.023 150.571 105.688 150.207 105.449C149.844 105.21 149.398 105.091 148.869 105.091C148.483 105.091 148.145 105.153 147.855 105.278C147.568 105.403 147.344 105.575 147.182 105.794C147.023 106.013 146.943 106.261 146.943 106.54C146.943 106.773 146.999 106.973 147.109 107.141C147.223 107.305 147.368 107.443 147.544 107.554C147.72 107.662 147.905 107.751 148.098 107.822C148.291 107.891 148.469 107.946 148.631 107.989L149.517 108.227C149.744 108.287 149.997 108.369 150.276 108.474C150.557 108.58 150.825 108.723 151.081 108.905C151.339 109.084 151.553 109.314 151.72 109.595C151.888 109.876 151.972 110.222 151.972 110.631C151.972 111.102 151.848 111.528 151.601 111.909C151.357 112.29 150.999 112.592 150.527 112.817C150.058 113.041 149.489 113.153 148.818 113.153C148.193 113.153 147.652 113.053 147.195 112.851C146.74 112.649 146.382 112.368 146.121 112.007C145.862 111.646 145.716 111.227 145.682 110.75H146.773C146.801 111.08 146.912 111.352 147.105 111.568C147.301 111.781 147.548 111.94 147.847 112.045C148.148 112.148 148.472 112.199 148.818 112.199C149.222 112.199 149.584 112.134 149.905 112.003C150.226 111.869 150.48 111.685 150.668 111.449C150.855 111.21 150.949 110.932 150.949 110.614C150.949 110.324 150.868 110.088 150.706 109.906C150.544 109.724 150.331 109.577 150.067 109.463C149.803 109.349 149.517 109.25 149.21 109.165L148.136 108.858C147.455 108.662 146.915 108.382 146.517 108.018C146.119 107.655 145.92 107.179 145.92 106.591C145.92 106.102 146.053 105.676 146.317 105.312C146.584 104.946 146.942 104.662 147.391 104.46C147.842 104.256 148.347 104.153 148.903 104.153C149.466 104.153 149.966 104.254 150.403 104.456C150.841 104.655 151.188 104.928 151.443 105.274C151.702 105.621 151.838 106.014 151.852 106.455H150.83ZM156.419 106.455V107.307H153.027V106.455H156.419ZM154.016 104.886H155.022V111.125C155.022 111.409 155.063 111.622 155.145 111.764C155.23 111.903 155.338 111.997 155.469 112.045C155.603 112.091 155.743 112.114 155.891 112.114C156.002 112.114 156.093 112.108 156.164 112.097C156.235 112.082 156.292 112.071 156.334 112.062L156.539 112.966C156.471 112.991 156.375 113.017 156.253 113.043C156.131 113.071 155.976 113.085 155.789 113.085C155.505 113.085 155.226 113.024 154.953 112.902C154.684 112.78 154.459 112.594 154.28 112.344C154.104 112.094 154.016 111.778 154.016 111.398V104.886ZM160.606 113.136C159.975 113.136 159.431 112.997 158.974 112.719C158.52 112.438 158.169 112.045 157.922 111.543C157.677 111.037 157.555 110.449 157.555 109.778C157.555 109.108 157.677 108.517 157.922 108.006C158.169 107.491 158.512 107.091 158.953 106.804C159.396 106.514 159.913 106.369 160.504 106.369C160.845 106.369 161.181 106.426 161.514 106.54C161.846 106.653 162.149 106.838 162.422 107.094C162.694 107.347 162.912 107.682 163.074 108.099C163.235 108.517 163.316 109.031 163.316 109.642V110.068H158.271V109.199H162.294C162.294 108.83 162.22 108.5 162.072 108.21C161.927 107.92 161.72 107.692 161.45 107.524C161.183 107.357 160.868 107.273 160.504 107.273C160.103 107.273 159.757 107.372 159.464 107.571C159.174 107.767 158.951 108.023 158.795 108.338C158.639 108.653 158.561 108.991 158.561 109.352V109.932C158.561 110.426 158.646 110.845 158.816 111.189C158.99 111.53 159.23 111.79 159.537 111.969C159.843 112.145 160.2 112.233 160.606 112.233C160.87 112.233 161.109 112.196 161.322 112.122C161.538 112.045 161.724 111.932 161.88 111.781C162.037 111.628 162.157 111.437 162.243 111.21L163.214 111.483C163.112 111.812 162.94 112.102 162.699 112.352C162.457 112.599 162.159 112.793 161.804 112.932C161.449 113.068 161.049 113.136 160.606 113.136ZM164.846 113V106.455H165.818V107.443H165.886C166.005 107.119 166.221 106.857 166.534 106.655C166.846 106.453 167.199 106.352 167.591 106.352C167.664 106.352 167.757 106.354 167.868 106.357C167.978 106.359 168.062 106.364 168.119 106.369V107.392C168.085 107.384 168.007 107.371 167.885 107.354C167.765 107.334 167.639 107.324 167.505 107.324C167.187 107.324 166.903 107.391 166.653 107.524C166.406 107.655 166.21 107.837 166.065 108.07C165.923 108.3 165.852 108.562 165.852 108.858V113H164.846ZM171.856 113.136C171.225 113.136 170.681 112.997 170.224 112.719C169.77 112.438 169.419 112.045 169.172 111.543C168.927 111.037 168.805 110.449 168.805 109.778C168.805 109.108 168.927 108.517 169.172 108.006C169.419 107.491 169.762 107.091 170.203 106.804C170.646 106.514 171.163 106.369 171.754 106.369C172.095 106.369 172.431 106.426 172.764 106.54C173.096 106.653 173.399 106.838 173.672 107.094C173.944 107.347 174.162 107.682 174.324 108.099C174.485 108.517 174.566 109.031 174.566 109.642V110.068H169.521V109.199H173.544C173.544 108.83 173.47 108.5 173.322 108.21C173.177 107.92 172.97 107.692 172.7 107.524C172.433 107.357 172.118 107.273 171.754 107.273C171.353 107.273 171.007 107.372 170.714 107.571C170.424 107.767 170.201 108.023 170.045 108.338C169.889 108.653 169.811 108.991 169.811 109.352V109.932C169.811 110.426 169.896 110.845 170.066 111.189C170.24 111.53 170.48 111.79 170.787 111.969C171.093 112.145 171.45 112.233 171.856 112.233C172.12 112.233 172.359 112.196 172.572 112.122C172.788 112.045 172.974 111.932 173.13 111.781C173.287 111.628 173.407 111.437 173.493 111.21L174.464 111.483C174.362 111.812 174.19 112.102 173.949 112.352C173.707 112.599 173.409 112.793 173.054 112.932C172.699 113.068 172.299 113.136 171.856 113.136ZM178.755 113.136C178.164 113.136 177.646 112.996 177.2 112.714C176.757 112.433 176.41 112.04 176.16 111.534C175.913 111.028 175.789 110.437 175.789 109.761C175.789 109.08 175.913 108.484 176.16 107.976C176.41 107.467 176.757 107.072 177.2 106.791C177.646 106.51 178.164 106.369 178.755 106.369C179.346 106.369 179.863 106.51 180.306 106.791C180.752 107.072 181.099 107.467 181.346 107.976C181.596 108.484 181.721 109.08 181.721 109.761C181.721 110.437 181.596 111.028 181.346 111.534C181.099 112.04 180.752 112.433 180.306 112.714C179.863 112.996 179.346 113.136 178.755 113.136ZM178.755 112.233C179.204 112.233 179.574 112.118 179.863 111.888C180.153 111.658 180.368 111.355 180.507 110.98C180.646 110.605 180.716 110.199 180.716 109.761C180.716 109.324 180.646 108.916 180.507 108.538C180.368 108.161 180.153 107.855 179.863 107.622C179.574 107.389 179.204 107.273 178.755 107.273C178.306 107.273 177.937 107.389 177.647 107.622C177.358 107.855 177.143 108.161 177.004 108.538C176.865 108.916 176.795 109.324 176.795 109.761C176.795 110.199 176.865 110.605 177.004 110.98C177.143 111.355 177.358 111.658 177.647 111.888C177.937 112.118 178.306 112.233 178.755 112.233ZM191.54 106.455C191.489 106.023 191.282 105.688 190.918 105.449C190.555 105.21 190.109 105.091 189.58 105.091C189.194 105.091 188.856 105.153 188.566 105.278C188.279 105.403 188.055 105.575 187.893 105.794C187.734 106.013 187.654 106.261 187.654 106.54C187.654 106.773 187.71 106.973 187.82 107.141C187.934 107.305 188.079 107.443 188.255 107.554C188.431 107.662 188.616 107.751 188.809 107.822C189.002 107.891 189.18 107.946 189.342 107.989L190.228 108.227C190.455 108.287 190.708 108.369 190.987 108.474C191.268 108.58 191.536 108.723 191.792 108.905C192.05 109.084 192.263 109.314 192.431 109.595C192.599 109.876 192.683 110.222 192.683 110.631C192.683 111.102 192.559 111.528 192.312 111.909C192.067 112.29 191.71 112.592 191.238 112.817C190.769 113.041 190.2 113.153 189.529 113.153C188.904 113.153 188.363 113.053 187.906 112.851C187.451 112.649 187.093 112.368 186.832 112.007C186.573 111.646 186.427 111.227 186.393 110.75H187.484C187.512 111.08 187.623 111.352 187.816 111.568C188.012 111.781 188.259 111.94 188.558 112.045C188.859 112.148 189.183 112.199 189.529 112.199C189.933 112.199 190.295 112.134 190.616 112.003C190.937 111.869 191.191 111.685 191.379 111.449C191.566 111.21 191.66 110.932 191.66 110.614C191.66 110.324 191.579 110.088 191.417 109.906C191.255 109.724 191.042 109.577 190.778 109.463C190.513 109.349 190.228 109.25 189.921 109.165L188.847 108.858C188.165 108.662 187.626 108.382 187.228 108.018C186.83 107.655 186.631 107.179 186.631 106.591C186.631 106.102 186.763 105.676 187.028 105.312C187.295 104.946 187.653 104.662 188.102 104.46C188.553 104.256 189.058 104.153 189.614 104.153C190.177 104.153 190.677 104.254 191.114 104.456C191.552 104.655 191.898 104.928 192.154 105.274C192.413 105.621 192.549 106.014 192.563 106.455H191.54ZM194.284 115.455V106.455H195.255V107.494H195.375C195.449 107.381 195.551 107.236 195.681 107.06C195.815 106.881 196.005 106.722 196.252 106.582C196.502 106.44 196.841 106.369 197.267 106.369C197.818 106.369 198.304 106.507 198.724 106.783C199.145 107.058 199.473 107.449 199.708 107.955C199.944 108.46 200.062 109.057 200.062 109.744C200.062 110.438 199.944 111.038 199.708 111.547C199.473 112.053 199.146 112.445 198.728 112.723C198.311 112.999 197.829 113.136 197.284 113.136C196.863 113.136 196.527 113.067 196.274 112.928C196.021 112.786 195.826 112.625 195.69 112.446C195.554 112.264 195.449 112.114 195.375 111.994H195.289V115.455H194.284ZM195.272 109.727C195.272 110.222 195.345 110.658 195.49 111.036C195.635 111.411 195.846 111.705 196.125 111.918C196.403 112.128 196.744 112.233 197.147 112.233C197.568 112.233 197.919 112.122 198.2 111.901C198.484 111.676 198.697 111.375 198.839 110.997C198.984 110.616 199.056 110.193 199.056 109.727C199.056 109.267 198.985 108.852 198.843 108.483C198.704 108.111 198.493 107.817 198.208 107.601C197.927 107.382 197.574 107.273 197.147 107.273C196.738 107.273 196.395 107.376 196.116 107.584C195.838 107.788 195.627 108.075 195.485 108.445C195.343 108.811 195.272 109.239 195.272 109.727ZM204.341 113.136C203.71 113.136 203.166 112.997 202.708 112.719C202.254 112.438 201.903 112.045 201.656 111.543C201.412 111.037 201.289 110.449 201.289 109.778C201.289 109.108 201.412 108.517 201.656 108.006C201.903 107.491 202.247 107.091 202.687 106.804C203.13 106.514 203.647 106.369 204.238 106.369C204.579 106.369 204.916 106.426 205.248 106.54C205.581 106.653 205.883 106.838 206.156 107.094C206.429 107.347 206.646 107.682 206.808 108.099C206.97 108.517 207.051 109.031 207.051 109.642V110.068H202.005V109.199H206.028C206.028 108.83 205.954 108.5 205.806 108.21C205.662 107.92 205.454 107.692 205.184 107.524C204.917 107.357 204.602 107.273 204.238 107.273C203.838 107.273 203.491 107.372 203.199 107.571C202.909 107.767 202.686 108.023 202.529 108.338C202.373 108.653 202.295 108.991 202.295 109.352V109.932C202.295 110.426 202.38 110.845 202.551 111.189C202.724 111.53 202.964 111.79 203.271 111.969C203.578 112.145 203.934 112.233 204.341 112.233C204.605 112.233 204.843 112.196 205.056 112.122C205.272 112.045 205.458 111.932 205.615 111.781C205.771 111.628 205.892 111.437 205.977 111.21L206.949 111.483C206.846 111.812 206.674 112.102 206.433 112.352C206.191 112.599 205.893 112.793 205.538 112.932C205.183 113.068 204.784 113.136 204.341 113.136ZM210.507 113.153C210.092 113.153 209.716 113.075 209.377 112.919C209.039 112.76 208.771 112.531 208.572 112.233C208.373 111.932 208.274 111.568 208.274 111.142C208.274 110.767 208.348 110.463 208.495 110.23C208.643 109.994 208.841 109.81 209.088 109.676C209.335 109.543 209.608 109.443 209.906 109.378C210.207 109.31 210.51 109.256 210.814 109.216C211.211 109.165 211.534 109.126 211.781 109.101C212.031 109.072 212.213 109.026 212.326 108.96C212.443 108.895 212.501 108.781 212.501 108.619V108.585C212.501 108.165 212.386 107.838 212.156 107.605C211.929 107.372 211.583 107.256 211.12 107.256C210.64 107.256 210.264 107.361 209.991 107.571C209.718 107.781 209.527 108.006 209.416 108.244L208.461 107.903C208.632 107.506 208.859 107.196 209.143 106.974C209.43 106.75 209.743 106.594 210.081 106.506C210.422 106.415 210.757 106.369 211.086 106.369C211.297 106.369 211.538 106.395 211.811 106.446C212.086 106.494 212.352 106.595 212.608 106.749C212.866 106.902 213.081 107.134 213.251 107.443C213.422 107.753 213.507 108.168 213.507 108.688V113H212.501V112.114H212.45C212.382 112.256 212.268 112.408 212.109 112.57C211.95 112.732 211.738 112.869 211.474 112.983C211.21 113.097 210.887 113.153 210.507 113.153ZM210.66 112.25C211.058 112.25 211.393 112.172 211.666 112.016C211.941 111.859 212.149 111.658 212.288 111.411C212.43 111.163 212.501 110.903 212.501 110.631V109.71C212.458 109.761 212.365 109.808 212.22 109.851C212.078 109.891 211.913 109.926 211.725 109.957C211.541 109.986 211.36 110.011 211.184 110.034C211.011 110.054 210.87 110.071 210.762 110.085C210.501 110.119 210.257 110.175 210.029 110.251C209.805 110.325 209.623 110.437 209.484 110.588C209.348 110.736 209.279 110.937 209.279 111.193C209.279 111.543 209.409 111.807 209.667 111.986C209.929 112.162 210.26 112.25 210.66 112.25ZM216.28 110.614L216.263 109.369H216.467L219.331 106.455H220.575L217.524 109.54H217.439L216.28 110.614ZM215.342 113V104.273H216.348V113H215.342ZM219.501 113L216.945 109.761L217.661 109.062L220.78 113H219.501ZM224.344 113.136C223.714 113.136 223.17 112.997 222.712 112.719C222.258 112.438 221.907 112.045 221.66 111.543C221.415 111.037 221.293 110.449 221.293 109.778C221.293 109.108 221.415 108.517 221.66 108.006C221.907 107.491 222.251 107.091 222.691 106.804C223.134 106.514 223.651 106.369 224.242 106.369C224.583 106.369 224.92 106.426 225.252 106.54C225.585 106.653 225.887 106.838 226.16 107.094C226.433 107.347 226.65 107.682 226.812 108.099C226.974 108.517 227.055 109.031 227.055 109.642V110.068H222.009V109.199H226.032C226.032 108.83 225.958 108.5 225.81 108.21C225.665 107.92 225.458 107.692 225.188 107.524C224.921 107.357 224.606 107.273 224.242 107.273C223.842 107.273 223.495 107.372 223.202 107.571C222.913 107.767 222.69 108.023 222.533 108.338C222.377 108.653 222.299 108.991 222.299 109.352V109.932C222.299 110.426 222.384 110.845 222.555 111.189C222.728 111.53 222.968 111.79 223.275 111.969C223.582 112.145 223.938 112.233 224.344 112.233C224.609 112.233 224.847 112.196 225.06 112.122C225.276 112.045 225.462 111.932 225.619 111.781C225.775 111.628 225.896 111.437 225.981 111.21L226.952 111.483C226.85 111.812 226.678 112.102 226.437 112.352C226.195 112.599 225.897 112.793 225.542 112.932C225.187 113.068 224.788 113.136 224.344 113.136ZM228.585 113V106.455H229.556V107.443H229.624C229.744 107.119 229.96 106.857 230.272 106.655C230.585 106.453 230.937 106.352 231.329 106.352C231.403 106.352 231.495 106.354 231.606 106.357C231.717 106.359 231.8 106.364 231.857 106.369V107.392C231.823 107.384 231.745 107.371 231.623 107.354C231.504 107.334 231.377 107.324 231.244 107.324C230.925 107.324 230.641 107.391 230.391 107.524C230.144 107.655 229.948 107.837 229.803 108.07C229.661 108.3 229.59 108.562 229.59 108.858V113H228.585Z" fill="black"></path><rect x="288.5" y="155.5" width="74" height="27" stroke="black"></rect><path d="M301 169L295 169" stroke="black"></path><path d="M355 169L349 169" stroke="black"></path><path d="M352 166V172" stroke="black"></path><path d="M321.849 172.21V171.341L325.684 165.273H326.315V166.619H325.889L322.991 171.205V171.273H328.156V172.21H321.849ZM325.957 174V171.946V171.541V165.273H326.963V174H325.957Z" fill="black"></path><path d="M148.75 174H146.057V165.273H148.869C149.716 165.273 150.44 165.447 151.043 165.797C151.645 166.143 152.107 166.642 152.428 167.293C152.749 167.94 152.909 168.716 152.909 169.619C152.909 170.528 152.747 171.311 152.423 171.967C152.099 172.621 151.628 173.124 151.009 173.476C150.389 173.825 149.636 174 148.75 174ZM147.114 173.062H148.682C149.403 173.062 150.001 172.923 150.476 172.645C150.95 172.366 151.304 171.97 151.537 171.456C151.77 170.942 151.886 170.33 151.886 169.619C151.886 168.915 151.771 168.308 151.541 167.8C151.311 167.288 150.967 166.896 150.51 166.624C150.053 166.348 149.483 166.21 148.801 166.21H147.114V173.062ZM154.545 174V167.455H155.551V174H154.545ZM155.057 166.364C154.861 166.364 154.692 166.297 154.55 166.163C154.411 166.03 154.341 165.869 154.341 165.682C154.341 165.494 154.411 165.334 154.55 165.2C154.692 165.067 154.861 165 155.057 165C155.253 165 155.42 165.067 155.56 165.2C155.702 165.334 155.773 165.494 155.773 165.682C155.773 165.869 155.702 166.03 155.56 166.163C155.42 166.297 155.253 166.364 155.057 166.364ZM158.399 170.062V174H157.393V167.455H158.365V168.477H158.45C158.603 168.145 158.836 167.878 159.149 167.676C159.461 167.472 159.865 167.369 160.359 167.369C160.802 167.369 161.19 167.46 161.522 167.642C161.855 167.821 162.113 168.094 162.298 168.46C162.483 168.824 162.575 169.284 162.575 169.841V174H161.569V169.909C161.569 169.395 161.436 168.994 161.169 168.707C160.902 168.418 160.535 168.273 160.069 168.273C159.748 168.273 159.461 168.342 159.208 168.482C158.958 168.621 158.761 168.824 158.616 169.091C158.471 169.358 158.399 169.682 158.399 170.062ZM164.413 174V167.455H165.418V174H164.413ZM164.924 166.364C164.728 166.364 164.559 166.297 164.417 166.163C164.278 166.03 164.208 165.869 164.208 165.682C164.208 165.494 164.278 165.334 164.417 165.2C164.559 165.067 164.728 165 164.924 165C165.12 165 165.288 165.067 165.427 165.2C165.569 165.334 165.64 165.494 165.64 165.682C165.64 165.869 165.569 166.03 165.427 166.163C165.288 166.297 165.12 166.364 164.924 166.364ZM168.266 170.062V174H167.26V167.455H168.232V168.477H168.317C168.471 168.145 168.703 167.878 169.016 167.676C169.328 167.472 169.732 167.369 170.226 167.369C170.669 167.369 171.057 167.46 171.39 167.642C171.722 167.821 171.98 168.094 172.165 168.46C172.35 168.824 172.442 169.284 172.442 169.841V174H171.436V169.909C171.436 169.395 171.303 168.994 171.036 168.707C170.769 168.418 170.402 168.273 169.936 168.273C169.615 168.273 169.328 168.342 169.076 168.482C168.826 168.621 168.628 168.824 168.483 169.091C168.338 169.358 168.266 169.682 168.266 170.062ZM176.922 176.591C176.436 176.591 176.018 176.528 175.669 176.403C175.32 176.281 175.028 176.119 174.795 175.918C174.565 175.719 174.382 175.506 174.246 175.278L175.047 174.716C175.138 174.835 175.253 174.972 175.392 175.125C175.531 175.281 175.722 175.416 175.963 175.53C176.207 175.646 176.527 175.705 176.922 175.705C177.45 175.705 177.886 175.577 178.23 175.321C178.574 175.065 178.746 174.665 178.746 174.119V172.79H178.661C178.587 172.909 178.482 173.057 178.345 173.233C178.212 173.406 178.018 173.561 177.766 173.697C177.516 173.831 177.178 173.898 176.751 173.898C176.223 173.898 175.749 173.773 175.328 173.523C174.911 173.273 174.58 172.909 174.335 172.432C174.094 171.955 173.973 171.375 173.973 170.693C173.973 170.023 174.091 169.439 174.327 168.942C174.563 168.442 174.891 168.055 175.311 167.783C175.732 167.507 176.217 167.369 176.768 167.369C177.195 167.369 177.533 167.44 177.783 167.582C178.036 167.722 178.229 167.881 178.362 168.06C178.499 168.236 178.604 168.381 178.678 168.494H178.78V167.455H179.751V174.188C179.751 174.75 179.624 175.207 179.368 175.56C179.115 175.915 178.774 176.175 178.345 176.339C177.919 176.507 177.445 176.591 176.922 176.591ZM176.888 172.994C177.291 172.994 177.632 172.902 177.911 172.717C178.189 172.533 178.401 172.267 178.545 171.92C178.69 171.574 178.763 171.159 178.763 170.676C178.763 170.205 178.692 169.788 178.55 169.428C178.408 169.067 178.197 168.784 177.919 168.58C177.641 168.375 177.297 168.273 176.888 168.273C176.462 168.273 176.107 168.381 175.822 168.597C175.541 168.812 175.33 169.102 175.188 169.466C175.048 169.83 174.979 170.233 174.979 170.676C174.979 171.131 175.05 171.533 175.192 171.882C175.337 172.229 175.55 172.501 175.831 172.7C176.115 172.896 176.467 172.994 176.888 172.994ZM185.104 174V165.273H188.053C188.734 165.273 189.294 165.389 189.732 165.622C190.169 165.852 190.493 166.169 190.703 166.572C190.913 166.976 191.018 167.435 191.018 167.949C191.018 168.463 190.913 168.919 190.703 169.317C190.493 169.714 190.17 170.027 189.736 170.254C189.301 170.479 188.746 170.591 188.07 170.591H185.683V169.636H188.036C188.501 169.636 188.876 169.568 189.161 169.432C189.447 169.295 189.655 169.102 189.783 168.852C189.913 168.599 189.979 168.298 189.979 167.949C189.979 167.599 189.913 167.294 189.783 167.033C189.652 166.771 189.443 166.57 189.156 166.428C188.869 166.283 188.49 166.21 188.018 166.21H186.161V174H185.104ZM189.212 170.08L191.359 174H190.132L188.018 170.08H189.212ZM195.232 174.136C194.641 174.136 194.123 173.996 193.676 173.714C193.233 173.433 192.887 173.04 192.637 172.534C192.39 172.028 192.266 171.437 192.266 170.761C192.266 170.08 192.39 169.484 192.637 168.976C192.887 168.467 193.233 168.072 193.676 167.791C194.123 167.51 194.641 167.369 195.232 167.369C195.823 167.369 196.34 167.51 196.783 167.791C197.229 168.072 197.576 168.467 197.823 168.976C198.073 169.484 198.198 170.08 198.198 170.761C198.198 171.437 198.073 172.028 197.823 172.534C197.576 173.04 197.229 173.433 196.783 173.714C196.34 173.996 195.823 174.136 195.232 174.136ZM195.232 173.233C195.681 173.233 196.05 173.118 196.34 172.888C196.63 172.658 196.844 172.355 196.983 171.98C197.123 171.605 197.192 171.199 197.192 170.761C197.192 170.324 197.123 169.916 196.983 169.538C196.844 169.161 196.63 168.855 196.34 168.622C196.05 168.389 195.681 168.273 195.232 168.273C194.783 168.273 194.414 168.389 194.124 168.622C193.834 168.855 193.62 169.161 193.48 169.538C193.341 169.916 193.272 170.324 193.272 170.761C193.272 171.199 193.341 171.605 193.48 171.98C193.62 172.355 193.834 172.658 194.124 172.888C194.414 173.118 194.783 173.233 195.232 173.233ZM202.392 174.136C201.801 174.136 201.283 173.996 200.837 173.714C200.393 173.433 200.047 173.04 199.797 172.534C199.55 172.028 199.426 171.437 199.426 170.761C199.426 170.08 199.55 169.484 199.797 168.976C200.047 168.467 200.393 168.072 200.837 167.791C201.283 167.51 201.801 167.369 202.392 167.369C202.983 167.369 203.5 167.51 203.943 167.791C204.389 168.072 204.736 168.467 204.983 168.976C205.233 169.484 205.358 170.08 205.358 170.761C205.358 171.437 205.233 172.028 204.983 172.534C204.736 173.04 204.389 173.433 203.943 173.714C203.5 173.996 202.983 174.136 202.392 174.136ZM202.392 173.233C202.841 173.233 203.21 173.118 203.5 172.888C203.79 172.658 204.004 172.355 204.143 171.98C204.283 171.605 204.352 171.199 204.352 170.761C204.352 170.324 204.283 169.916 204.143 169.538C204.004 169.161 203.79 168.855 203.5 168.622C203.21 168.389 202.841 168.273 202.392 168.273C201.943 168.273 201.574 168.389 201.284 168.622C200.994 168.855 200.78 169.161 200.641 169.538C200.501 169.916 200.432 170.324 200.432 170.761C200.432 171.199 200.501 171.605 200.641 171.98C200.78 172.355 200.994 172.658 201.284 172.888C201.574 173.118 201.943 173.233 202.392 173.233ZM206.893 174V167.455H207.865V168.477H207.95C208.086 168.128 208.306 167.857 208.61 167.663C208.914 167.467 209.279 167.369 209.706 167.369C210.137 167.369 210.497 167.467 210.784 167.663C211.074 167.857 211.299 168.128 211.461 168.477H211.529C211.697 168.139 211.949 167.871 212.284 167.672C212.619 167.47 213.021 167.369 213.49 167.369C214.075 167.369 214.554 167.553 214.926 167.919C215.298 168.283 215.484 168.849 215.484 169.619V174H214.478V169.619C214.478 169.136 214.346 168.791 214.082 168.584C213.818 168.376 213.507 168.273 213.149 168.273C212.689 168.273 212.332 168.412 212.079 168.69C211.826 168.966 211.7 169.315 211.7 169.739V174H210.677V169.517C210.677 169.145 210.556 168.845 210.315 168.618C210.074 168.388 209.762 168.273 209.382 168.273C209.12 168.273 208.876 168.342 208.649 168.482C208.424 168.621 208.243 168.814 208.103 169.061C207.967 169.305 207.899 169.588 207.899 169.909V174H206.893ZM227.857 168H226.8C226.738 167.696 226.628 167.429 226.472 167.199C226.319 166.969 226.131 166.776 225.909 166.619C225.691 166.46 225.448 166.341 225.181 166.261C224.914 166.182 224.635 166.142 224.346 166.142C223.817 166.142 223.338 166.276 222.909 166.543C222.483 166.81 222.144 167.203 221.891 167.723C221.641 168.243 221.516 168.881 221.516 169.636C221.516 170.392 221.641 171.03 221.891 171.55C222.144 172.07 222.483 172.463 222.909 172.73C223.338 172.997 223.817 173.131 224.346 173.131C224.635 173.131 224.914 173.091 225.181 173.011C225.448 172.932 225.691 172.814 225.909 172.658C226.131 172.499 226.319 172.304 226.472 172.074C226.628 171.841 226.738 171.574 226.8 171.273H227.857C227.777 171.719 227.632 172.118 227.422 172.47C227.212 172.822 226.951 173.122 226.638 173.369C226.326 173.614 225.975 173.8 225.586 173.928C225.199 174.055 224.786 174.119 224.346 174.119C223.601 174.119 222.939 173.938 222.36 173.574C221.78 173.21 221.324 172.693 220.992 172.023C220.659 171.352 220.493 170.557 220.493 169.636C220.493 168.716 220.659 167.92 220.992 167.25C221.324 166.58 221.78 166.062 222.36 165.699C222.939 165.335 223.601 165.153 224.346 165.153C224.786 165.153 225.199 165.217 225.586 165.345C225.975 165.473 226.326 165.661 226.638 165.908C226.951 166.152 227.212 166.45 227.422 166.803C227.632 167.152 227.777 167.551 227.857 168ZM230.434 170.062V174H229.428V165.273H230.434V168.477H230.519C230.673 168.139 230.903 167.871 231.21 167.672C231.519 167.47 231.931 167.369 232.445 167.369C232.891 167.369 233.282 167.459 233.617 167.638C233.952 167.814 234.212 168.085 234.397 168.452C234.585 168.815 234.678 169.278 234.678 169.841V174H233.673V169.909C233.673 169.389 233.538 168.987 233.268 168.703C233.001 168.416 232.63 168.273 232.156 168.273C231.826 168.273 231.531 168.342 231.269 168.482C231.011 168.621 230.806 168.824 230.656 169.091C230.508 169.358 230.434 169.682 230.434 170.062ZM238.444 174.153C238.029 174.153 237.653 174.075 237.315 173.919C236.977 173.76 236.708 173.531 236.51 173.233C236.311 172.932 236.211 172.568 236.211 172.142C236.211 171.767 236.285 171.463 236.433 171.23C236.581 170.994 236.778 170.81 237.025 170.676C237.272 170.543 237.545 170.443 237.843 170.378C238.145 170.31 238.447 170.256 238.751 170.216C239.149 170.165 239.471 170.126 239.718 170.101C239.968 170.072 240.15 170.026 240.264 169.96C240.38 169.895 240.439 169.781 240.439 169.619V169.585C240.439 169.165 240.324 168.838 240.093 168.605C239.866 168.372 239.521 168.256 239.058 168.256C238.578 168.256 238.201 168.361 237.929 168.571C237.656 168.781 237.464 169.006 237.353 169.244L236.399 168.903C236.569 168.506 236.797 168.196 237.081 167.974C237.368 167.75 237.68 167.594 238.018 167.506C238.359 167.415 238.694 167.369 239.024 167.369C239.234 167.369 239.475 167.395 239.748 167.446C240.024 167.494 240.289 167.595 240.545 167.749C240.804 167.902 241.018 168.134 241.189 168.443C241.359 168.753 241.444 169.168 241.444 169.688V174H240.439V173.114H240.387C240.319 173.256 240.206 173.408 240.047 173.57C239.887 173.732 239.676 173.869 239.412 173.983C239.147 174.097 238.825 174.153 238.444 174.153ZM238.598 173.25C238.995 173.25 239.331 173.172 239.603 173.016C239.879 172.859 240.086 172.658 240.225 172.411C240.368 172.163 240.439 171.903 240.439 171.631V170.71C240.396 170.761 240.302 170.808 240.157 170.851C240.015 170.891 239.85 170.926 239.663 170.957C239.478 170.986 239.298 171.011 239.122 171.034C238.949 171.054 238.808 171.071 238.7 171.085C238.439 171.119 238.194 171.175 237.967 171.251C237.743 171.325 237.561 171.437 237.422 171.588C237.285 171.736 237.217 171.937 237.217 172.193C237.217 172.543 237.346 172.807 237.605 172.986C237.866 173.162 238.197 173.25 238.598 173.25ZM243.28 174V167.455H244.286V174H243.28ZM243.791 166.364C243.595 166.364 243.426 166.297 243.284 166.163C243.145 166.03 243.075 165.869 243.075 165.682C243.075 165.494 243.145 165.334 243.284 165.2C243.426 165.067 243.595 165 243.791 165C243.987 165 244.155 165.067 244.294 165.2C244.436 165.334 244.507 165.494 244.507 165.682C244.507 165.869 244.436 166.03 244.294 166.163C244.155 166.297 243.987 166.364 243.791 166.364ZM246.127 174V167.455H247.099V168.443H247.167C247.287 168.119 247.502 167.857 247.815 167.655C248.127 167.453 248.48 167.352 248.872 167.352C248.946 167.352 249.038 167.354 249.149 167.357C249.26 167.359 249.343 167.364 249.4 167.369V168.392C249.366 168.384 249.288 168.371 249.166 168.354C249.047 168.334 248.92 168.324 248.787 168.324C248.468 168.324 248.184 168.391 247.934 168.524C247.687 168.655 247.491 168.837 247.346 169.07C247.204 169.3 247.133 169.562 247.133 169.858V174H246.127Z" fill="black"></path><rect x="288.5" y="216.5" width="74" height="27" stroke="black"></rect><path d="M301 230L295 230" stroke="black"></path><path d="M355 230L349 230" stroke="black"></path><path d="M352 227V233" stroke="black"></path><path d="M326.183 226.273V235H325.126V227.381H325.075L322.944 228.795V227.722L325.126 226.273H326.183Z" fill="black"></path><path d="M148.75 235H146.057V226.273H148.869C149.716 226.273 150.44 226.447 151.043 226.797C151.645 227.143 152.107 227.642 152.428 228.293C152.749 228.94 152.909 229.716 152.909 230.619C152.909 231.528 152.747 232.311 152.423 232.967C152.099 233.621 151.628 234.124 151.009 234.476C150.389 234.825 149.636 235 148.75 235ZM147.114 234.062H148.682C149.403 234.062 150.001 233.923 150.476 233.645C150.95 233.366 151.304 232.97 151.537 232.456C151.77 231.942 151.886 231.33 151.886 230.619C151.886 229.915 151.771 229.308 151.541 228.8C151.311 228.288 150.967 227.896 150.51 227.624C150.053 227.348 149.483 227.21 148.801 227.21H147.114V234.062ZM158.67 232.324V228.455H159.676V235H158.67V233.892H158.602C158.449 234.224 158.21 234.507 157.886 234.74C157.563 234.97 157.153 235.085 156.659 235.085C156.25 235.085 155.886 234.996 155.568 234.817C155.25 234.635 155 234.362 154.818 233.999C154.636 233.632 154.545 233.17 154.545 232.614V228.455H155.551V232.545C155.551 233.023 155.685 233.403 155.952 233.688C156.222 233.972 156.565 234.114 156.983 234.114C157.233 234.114 157.487 234.05 157.746 233.922C158.007 233.794 158.226 233.598 158.402 233.334C158.581 233.07 158.67 232.733 158.67 232.324ZM163.444 235.153C163.029 235.153 162.653 235.075 162.315 234.919C161.977 234.76 161.708 234.531 161.51 234.233C161.311 233.932 161.211 233.568 161.211 233.142C161.211 232.767 161.285 232.463 161.433 232.23C161.581 231.994 161.778 231.81 162.025 231.676C162.272 231.543 162.545 231.443 162.843 231.378C163.145 231.31 163.447 231.256 163.751 231.216C164.149 231.165 164.471 231.126 164.718 231.101C164.968 231.072 165.15 231.026 165.264 230.96C165.38 230.895 165.439 230.781 165.439 230.619V230.585C165.439 230.165 165.324 229.838 165.093 229.605C164.866 229.372 164.521 229.256 164.058 229.256C163.578 229.256 163.201 229.361 162.929 229.571C162.656 229.781 162.464 230.006 162.353 230.244L161.399 229.903C161.569 229.506 161.797 229.196 162.081 228.974C162.368 228.75 162.68 228.594 163.018 228.506C163.359 228.415 163.694 228.369 164.024 228.369C164.234 228.369 164.475 228.395 164.748 228.446C165.024 228.494 165.289 228.595 165.545 228.749C165.804 228.902 166.018 229.134 166.189 229.443C166.359 229.753 166.444 230.168 166.444 230.688V235H165.439V234.114H165.387C165.319 234.256 165.206 234.408 165.047 234.57C164.887 234.732 164.676 234.869 164.412 234.983C164.147 235.097 163.825 235.153 163.444 235.153ZM163.598 234.25C163.995 234.25 164.331 234.172 164.603 234.016C164.879 233.859 165.086 233.658 165.225 233.411C165.368 233.163 165.439 232.903 165.439 232.631V231.71C165.396 231.761 165.302 231.808 165.157 231.851C165.015 231.891 164.85 231.926 164.663 231.957C164.478 231.986 164.298 232.011 164.122 232.034C163.949 232.054 163.808 232.071 163.7 232.085C163.439 232.119 163.194 232.175 162.967 232.251C162.743 232.325 162.561 232.437 162.422 232.588C162.285 232.736 162.217 232.937 162.217 233.193C162.217 233.543 162.346 233.807 162.605 233.986C162.866 234.162 163.197 234.25 163.598 234.25ZM169.286 226.273V235H168.28V226.273H169.286ZM174.639 235V226.273H175.696V230.159H180.349V226.273H181.406V235H180.349V231.097H175.696V235H174.639ZM184.033 237.455C183.863 237.455 183.711 237.44 183.577 237.412C183.444 237.386 183.351 237.361 183.3 237.335L183.556 236.449C183.8 236.511 184.016 236.534 184.203 236.517C184.391 236.5 184.557 236.416 184.702 236.266C184.85 236.118 184.985 235.878 185.107 235.545L185.294 235.034L182.874 228.455H183.965L185.772 233.67H185.84L187.647 228.455H188.738L185.959 235.955C185.834 236.293 185.679 236.572 185.495 236.794C185.31 237.018 185.096 237.185 184.851 237.293C184.61 237.401 184.337 237.455 184.033 237.455ZM190.201 235V226.273H191.207V229.494H191.292C191.366 229.381 191.468 229.236 191.599 229.06C191.733 228.881 191.923 228.722 192.17 228.582C192.42 228.44 192.758 228.369 193.184 228.369C193.735 228.369 194.221 228.507 194.642 228.783C195.062 229.058 195.39 229.449 195.626 229.955C195.862 230.46 195.98 231.057 195.98 231.744C195.98 232.438 195.862 233.038 195.626 233.547C195.39 234.053 195.064 234.445 194.646 234.723C194.228 234.999 193.747 235.136 193.201 235.136C192.781 235.136 192.444 235.067 192.191 234.928C191.939 234.786 191.744 234.625 191.608 234.446C191.471 234.264 191.366 234.114 191.292 233.994H191.173V235H190.201ZM191.19 231.727C191.19 232.222 191.262 232.658 191.407 233.036C191.552 233.411 191.764 233.705 192.042 233.918C192.321 234.128 192.662 234.233 193.065 234.233C193.485 234.233 193.836 234.122 194.118 233.901C194.402 233.676 194.615 233.375 194.757 232.997C194.902 232.616 194.974 232.193 194.974 231.727C194.974 231.267 194.903 230.852 194.761 230.483C194.622 230.111 194.41 229.817 194.126 229.601C193.845 229.382 193.491 229.273 193.065 229.273C192.656 229.273 192.312 229.376 192.034 229.584C191.755 229.788 191.545 230.075 191.403 230.445C191.261 230.811 191.19 231.239 191.19 231.727ZM197.518 235V228.455H198.49V229.443H198.558C198.677 229.119 198.893 228.857 199.206 228.655C199.518 228.453 199.87 228.352 200.262 228.352C200.336 228.352 200.429 228.354 200.539 228.357C200.65 228.359 200.734 228.364 200.791 228.369V229.392C200.757 229.384 200.679 229.371 200.556 229.354C200.437 229.334 200.311 229.324 200.177 229.324C199.859 229.324 199.575 229.391 199.325 229.524C199.078 229.655 198.882 229.837 198.737 230.07C198.595 230.3 198.524 230.562 198.524 230.858V235H197.518ZM201.983 235V228.455H202.989V235H201.983ZM202.494 227.364C202.298 227.364 202.129 227.297 201.987 227.163C201.848 227.03 201.778 226.869 201.778 226.682C201.778 226.494 201.848 226.334 201.987 226.2C202.129 226.067 202.298 226 202.494 226C202.69 226 202.858 226.067 202.997 226.2C203.139 226.334 203.21 226.494 203.21 226.682C203.21 226.869 203.139 227.03 202.997 227.163C202.858 227.297 202.69 227.364 202.494 227.364ZM207.302 235.136C206.757 235.136 206.275 234.999 205.858 234.723C205.44 234.445 205.113 234.053 204.877 233.547C204.642 233.038 204.524 232.438 204.524 231.744C204.524 231.057 204.642 230.46 204.877 229.955C205.113 229.449 205.441 229.058 205.862 228.783C206.282 228.507 206.768 228.369 207.319 228.369C207.745 228.369 208.082 228.44 208.329 228.582C208.579 228.722 208.77 228.881 208.9 229.06C209.034 229.236 209.137 229.381 209.211 229.494H209.297V226.273H210.302V235H209.331V233.994H209.211C209.137 234.114 209.032 234.264 208.896 234.446C208.76 234.625 208.565 234.786 208.312 234.928C208.059 235.067 207.723 235.136 207.302 235.136ZM207.439 234.233C207.842 234.233 208.183 234.128 208.461 233.918C208.74 233.705 208.951 233.411 209.096 233.036C209.241 232.658 209.314 232.222 209.314 231.727C209.314 231.239 209.243 230.811 209.1 230.445C208.958 230.075 208.748 229.788 208.47 229.584C208.191 229.376 207.848 229.273 207.439 229.273C207.012 229.273 206.657 229.382 206.373 229.601C206.092 229.817 205.88 230.111 205.738 230.483C205.599 230.852 205.529 231.267 205.529 231.727C205.529 232.193 205.6 232.616 205.743 232.997C205.887 233.375 206.1 233.676 206.382 233.901C206.666 234.122 207.018 234.233 207.439 234.233ZM215.795 235V226.273H218.744C219.426 226.273 219.985 226.389 220.423 226.622C220.86 226.852 221.184 227.169 221.395 227.572C221.605 227.976 221.71 228.435 221.71 228.949C221.71 229.463 221.605 229.919 221.395 230.317C221.184 230.714 220.862 231.027 220.427 231.254C219.993 231.479 219.437 231.591 218.761 231.591H216.375V230.636H218.727C219.193 230.636 219.568 230.568 219.852 230.432C220.139 230.295 220.346 230.102 220.474 229.852C220.605 229.599 220.67 229.298 220.67 228.949C220.67 228.599 220.605 228.294 220.474 228.033C220.343 227.771 220.135 227.57 219.848 227.428C219.561 227.283 219.181 227.21 218.71 227.21H216.852V235H215.795ZM219.903 231.08L222.051 235H220.824L218.71 231.08H219.903ZM226.009 235.136C225.378 235.136 224.834 234.997 224.376 234.719C223.922 234.438 223.571 234.045 223.324 233.543C223.08 233.037 222.957 232.449 222.957 231.778C222.957 231.108 223.08 230.517 223.324 230.006C223.571 229.491 223.915 229.091 224.355 228.804C224.798 228.514 225.315 228.369 225.906 228.369C226.247 228.369 226.584 228.426 226.916 228.54C227.249 228.653 227.551 228.838 227.824 229.094C228.097 229.347 228.314 229.682 228.476 230.099C228.638 230.517 228.719 231.031 228.719 231.642V232.068H223.673V231.199H227.696C227.696 230.83 227.622 230.5 227.474 230.21C227.33 229.92 227.122 229.692 226.852 229.524C226.585 229.357 226.27 229.273 225.906 229.273C225.506 229.273 225.159 229.372 224.866 229.571C224.577 229.767 224.354 230.023 224.197 230.338C224.041 230.653 223.963 230.991 223.963 231.352V231.932C223.963 232.426 224.048 232.845 224.219 233.189C224.392 233.53 224.632 233.79 224.939 233.969C225.246 234.145 225.602 234.233 226.009 234.233C226.273 234.233 226.511 234.196 226.724 234.122C226.94 234.045 227.126 233.932 227.283 233.781C227.439 233.628 227.56 233.437 227.645 233.21L228.616 233.483C228.514 233.812 228.342 234.102 228.101 234.352C227.859 234.599 227.561 234.793 227.206 234.932C226.851 235.068 226.452 235.136 226.009 235.136ZM230.249 235V228.455H231.22V229.477H231.305C231.442 229.128 231.662 228.857 231.966 228.663C232.27 228.467 232.635 228.369 233.061 228.369C233.493 228.369 233.852 228.467 234.139 228.663C234.429 228.857 234.655 229.128 234.817 229.477H234.885C235.053 229.139 235.304 228.871 235.639 228.672C235.974 228.47 236.376 228.369 236.845 228.369C237.43 228.369 237.909 228.553 238.281 228.919C238.653 229.283 238.839 229.849 238.839 230.619V235H237.834V230.619C237.834 230.136 237.702 229.791 237.438 229.584C237.173 229.376 236.862 229.273 236.504 229.273C236.044 229.273 235.688 229.412 235.435 229.69C235.182 229.966 235.055 230.315 235.055 230.739V235H234.033V230.517C234.033 230.145 233.912 229.845 233.67 229.618C233.429 229.388 233.118 229.273 232.737 229.273C232.476 229.273 232.232 229.342 232.004 229.482C231.78 229.621 231.598 229.814 231.459 230.061C231.322 230.305 231.254 230.588 231.254 230.909V235H230.249ZM243.337 235.136C242.746 235.136 242.228 234.996 241.782 234.714C241.339 234.433 240.992 234.04 240.742 233.534C240.495 233.028 240.371 232.437 240.371 231.761C240.371 231.08 240.495 230.484 240.742 229.976C240.992 229.467 241.339 229.072 241.782 228.791C242.228 228.51 242.746 228.369 243.337 228.369C243.928 228.369 244.445 228.51 244.888 228.791C245.335 229.072 245.681 229.467 245.928 229.976C246.178 230.484 246.303 231.08 246.303 231.761C246.303 232.437 246.178 233.028 245.928 233.534C245.681 234.04 245.335 234.433 244.888 234.714C244.445 234.996 243.928 235.136 243.337 235.136ZM243.337 234.233C243.786 234.233 244.156 234.118 244.445 233.888C244.735 233.658 244.95 233.355 245.089 232.98C245.228 232.605 245.298 232.199 245.298 231.761C245.298 231.324 245.228 230.916 245.089 230.538C244.95 230.161 244.735 229.855 244.445 229.622C244.156 229.389 243.786 229.273 243.337 229.273C242.888 229.273 242.519 229.389 242.229 229.622C241.94 229.855 241.725 230.161 241.586 230.538C241.447 230.916 241.377 231.324 241.377 231.761C241.377 232.199 241.447 232.605 241.586 232.98C241.725 233.355 241.94 233.658 242.229 233.888C242.519 234.118 242.888 234.233 243.337 234.233ZM250.685 228.455V229.307H247.293V228.455H250.685ZM248.282 226.886H249.287V233.125C249.287 233.409 249.328 233.622 249.411 233.764C249.496 233.903 249.604 233.997 249.735 234.045C249.868 234.091 250.009 234.114 250.157 234.114C250.267 234.114 250.358 234.108 250.429 234.097C250.5 234.082 250.557 234.071 250.6 234.062L250.804 234.966C250.736 234.991 250.641 235.017 250.519 235.043C250.397 235.071 250.242 235.085 250.054 235.085C249.77 235.085 249.492 235.024 249.219 234.902C248.949 234.78 248.725 234.594 248.546 234.344C248.37 234.094 248.282 233.778 248.282 233.398V226.886ZM254.872 235.136C254.241 235.136 253.697 234.997 253.24 234.719C252.785 234.438 252.434 234.045 252.187 233.543C251.943 233.037 251.821 232.449 251.821 231.778C251.821 231.108 251.943 230.517 252.187 230.006C252.434 229.491 252.778 229.091 253.218 228.804C253.662 228.514 254.179 228.369 254.77 228.369C255.11 228.369 255.447 228.426 255.779 228.54C256.112 228.653 256.414 228.838 256.687 229.094C256.96 229.347 257.177 229.682 257.339 230.099C257.501 230.517 257.582 231.031 257.582 231.642V232.068H252.537V231.199H256.559C256.559 230.83 256.485 230.5 256.338 230.21C256.193 229.92 255.985 229.692 255.716 229.524C255.449 229.357 255.133 229.273 254.77 229.273C254.369 229.273 254.022 229.372 253.73 229.571C253.44 229.767 253.217 230.023 253.061 230.338C252.904 230.653 252.826 230.991 252.826 231.352V231.932C252.826 232.426 252.912 232.845 253.082 233.189C253.255 233.53 253.495 233.79 253.802 233.969C254.109 234.145 254.466 234.233 254.872 234.233C255.136 234.233 255.375 234.196 255.588 234.122C255.804 234.045 255.99 233.932 256.146 233.781C256.302 233.628 256.423 233.437 256.508 233.21L257.48 233.483C257.377 233.812 257.206 234.102 256.964 234.352C256.723 234.599 256.424 234.793 256.069 234.932C255.714 235.068 255.315 235.136 254.872 235.136Z" fill="black"></path><circle cx="100.5" cy="168.5" r="100.5" fill="#D3FE8A"></circle><path d="M131.145 190.211H75.6866L77.8372 183.81H142.439L159 126.203H64.4635L58.6684 107H41V119.802H49.0873L66.4403 177.307L61.8815 190.909C58.0659 191.862 54.6308 193.943 52.0295 196.877C49.4281 199.811 47.7828 203.46 47.3107 207.343C46.8386 211.225 47.5619 215.159 49.3852 218.624C51.2084 222.09 54.0458 224.925 57.523 226.754C61.0002 228.583 64.9537 229.322 68.8617 228.871C72.7697 228.421 76.4485 226.803 79.4126 224.232C82.3767 221.66 84.4867 218.256 85.4642 214.468C86.4417 210.679 86.2407 206.685 84.8878 203.013H113.013C112.25 205.063 111.85 207.228 111.828 209.414C111.828 213.212 112.961 216.924 115.084 220.082C117.206 223.24 120.223 225.701 123.753 227.155C127.283 228.608 131.167 228.988 134.914 228.248C138.661 227.507 142.103 225.678 144.804 222.992C147.506 220.307 149.345 216.885 150.091 213.16C150.836 209.435 150.454 205.574 148.992 202.065C147.53 198.557 145.054 195.558 141.877 193.448C138.7 191.338 134.966 190.211 131.145 190.211ZM141.924 139.004L132.729 171.009H77.9981L68.3397 139.004H141.924ZM73.1947 209.414C73.1947 210.68 72.8171 211.917 72.1095 212.97C71.402 214.023 70.3964 214.843 69.2198 215.328C68.0433 215.812 66.7486 215.939 65.4996 215.692C64.2505 215.445 63.1032 214.835 62.2027 213.94C61.3022 213.045 60.689 211.904 60.4405 210.663C60.1921 209.421 60.3196 208.134 60.807 206.964C61.2943 205.795 62.1196 204.795 63.1785 204.092C64.2374 203.388 65.4823 203.013 66.7558 203.013C68.4635 203.013 70.1012 203.687 71.3088 204.888C72.5163 206.088 73.1947 207.716 73.1947 209.414ZM131.145 215.815C129.872 215.815 128.627 215.439 127.568 214.736C126.509 214.033 125.684 213.033 125.196 211.863C124.709 210.694 124.581 209.407 124.83 208.165C125.078 206.924 125.692 205.783 126.592 204.888C127.493 203.993 128.64 203.383 129.889 203.136C131.138 202.889 132.433 203.016 133.609 203.5C134.786 203.985 135.791 204.805 136.499 205.858C137.206 206.91 137.584 208.148 137.584 209.414C137.584 211.112 136.906 212.74 135.698 213.94C134.491 215.14 132.853 215.815 131.145 215.815Z" fill="#131313"></path></g><defs><filter id="filter0_bd_271_1578" x="218.859" y="368.145" width="232.281" height="121.697" filterUnits="userSpaceOnUse" color-interpolation-filters="sRGB"><feFlood flood-opacity="0" result="BackgroundImageFix"></feFlood><feGaussianBlur in="BackgroundImageFix" stdDeviation="16.4276"></feGaussianBlur><feComposite in2="SourceAlpha" operator="in" result="effect1_backgroundBlur_271_1578"></feComposite><feColorMatrix in="SourceAlpha" type="matrix" values="0 0 0 0 0 0 0 0 0 0 0 0 0 0 0 0 0 0 127 0" result="hardAlpha"></feColorMatrix><feOffset dy="6.70121"></feOffset><feGaussianBlur stdDeviation="18.0703"></feGaussianBlur><feComposite in2="hardAlpha" operator="out"></feComposite><feColorMatrix type="matrix" values="0 0 0 0 0 0 0 0 0 0 0 0 0 0 0 0 0 0 0.14 0"></feColorMatrix><feBlend mode="normal" in2="effect1_backgroundBlur_271_1578" result="effect2_dropShadow_271_1578"></feBlend><feBlend mode="normal" in="SourceGraphic" in2="effect2_dropShadow_271_1578" result="shape"></feBlend></filter></defs></svg> 