<?xml version="1.0" encoding="UTF-8"?> <svg xmlns="http://www.w3.org/2000/svg" width="483" height="491" viewBox="0 0 483 491" fill="none"><path d="M59.001 36H413.001V429H59.001V36Z" fill="#F9F9F9"></path><path d="M12.699 133.289C19.7121 99.4647 52.8173 77.7302 86.6413 84.7434C120.465 91.7566 142.2 124.862 135.187 158.686C128.173 192.51 95.0683 214.244 61.2443 207.231C27.4202 200.218 5.68576 167.113 12.699 133.289Z" fill="#EB440F"></path><path d="M81.842 108.063C74.4045 106.54 66.6644 107.288 59.6005 110.213C52.5366 113.137 46.4661 118.107 42.1568 124.493C37.8474 130.88 35.4927 138.396 35.3905 146.092C35.2882 153.788 37.4429 161.317 41.5822 167.728C45.7215 174.139 51.6594 179.144 58.645 182.109C65.6306 185.075 73.3502 185.868 80.8276 184.388C88.305 182.908 95.2044 179.222 100.653 173.796C106.102 168.37 109.856 161.448 111.439 153.904C113.551 143.79 111.621 133.283 106.073 124.689C100.524 116.095 91.8096 110.116 81.842 108.063ZM67.4289 176.716C61.4789 175.498 56.0382 172.517 51.7948 168.151C47.5515 163.786 44.696 158.231 43.5896 152.189C42.4831 146.147 43.1753 139.89 45.5787 134.209C47.9821 128.528 51.9887 123.678 57.0919 120.272C62.195 116.866 68.1655 115.058 74.2484 115.076C80.3312 115.093 86.2532 116.936 91.2654 120.371C96.2777 123.806 100.155 128.679 102.407 134.374C104.659 140.069 105.185 146.329 103.918 152.364C102.211 160.452 97.4105 167.558 90.5697 172.123C83.7289 176.689 75.4067 178.34 67.4289 176.716Z" fill="#EFEFEF"></path><path d="M81.5867 127.924L74.078 126.386L73.2786 130.195C71.2872 129.787 69.2089 130.199 67.5009 131.339C65.7929 132.48 64.5951 134.256 64.1711 136.276L63.3716 140.086C62.9476 142.107 63.332 144.207 64.4403 145.924C65.5486 147.642 67.2901 148.836 69.2815 149.244L76.7902 150.782L75.9907 154.592L60.9734 151.515L59.3745 159.135L66.8832 160.673L66.0838 164.483L73.5925 166.021L74.3919 162.211C76.3833 162.619 78.4616 162.208 80.1696 161.067C81.8776 159.927 83.0754 158.151 83.4994 156.13L84.2989 152.321C84.7229 150.3 84.3385 148.2 83.2302 146.482C82.1219 144.765 80.3804 143.571 78.389 143.163L70.8803 141.624L71.6798 137.815L86.6971 140.891L88.296 133.272L80.7873 131.734L81.5867 127.924Z" fill="#EFEFEF"></path><path d="M450.744 419.258C432.929 458.371 386.779 475.637 347.666 457.821C308.552 440.006 291.287 393.856 309.102 354.743C326.917 315.63 373.067 298.364 412.18 316.179C451.294 333.994 468.559 380.144 450.744 419.258Z" fill="#4F4718"></path><path d="M400.17 380.823L393.964 348.171C393.777 347.476 393.414 346.843 392.909 346.334C392.404 345.825 391.775 345.458 391.084 345.269C390.393 345.079 389.663 345.074 388.966 345.253C388.269 345.433 387.628 345.791 387.107 346.292L364.787 371.127L347.054 366.268L344.556 411.301L396.656 425.578L417.895 385.68L400.17 380.823ZM387.62 357.584L391.604 378.476L373.353 373.474L387.62 357.584ZM392.685 416.178L352.844 405.26L354.45 376.607L406.19 390.785L392.685 416.178Z" fill="#EFEFEF"></path><path d="M375.416 386.436L367.779 384.34L362.401 403.604L370.037 405.7L375.416 386.436Z" fill="#EFEFEF"></path><path d="M390.801 390.694L383.165 388.598L377.786 407.862L385.423 409.957L390.801 390.694Z" fill="#EFEFEF"></path><path d="M38.0543 44.2015C44.4122 19.7897 69.3561 5.15417 93.7679 11.5122C118.18 17.8701 132.815 42.814 126.457 67.2258C120.099 91.6376 95.1554 106.273 70.7436 99.9152C46.3318 93.5572 31.6963 68.6133 38.0543 44.2015Z" fill="#D3FE8A"></path><path d="M81.9037 59.9308L71.4522 62.7027C67.9896 63.6254 65.0447 65.895 63.2634 69.0136C61.482 72.1321 61.0096 75.845 61.9499 79.3378L64.0872 87.24L100.668 77.5385L98.5304 69.6363C97.5818 66.1457 95.2987 63.1636 92.1817 61.3441C89.0647 59.5247 85.3685 59.0164 81.9037 59.9308ZM94.0171 73.6563L67.8881 80.5859L67.1757 77.9519C66.6088 75.8561 66.8911 73.6271 67.9603 71.7553C69.0295 69.8835 70.7981 68.5221 72.877 67.9708L83.3286 65.1989C85.4076 64.6476 87.6265 64.9513 89.4974 66.0434C91.3683 67.1355 92.7378 68.9264 93.3046 71.0222L94.0171 73.6563Z" fill="black"></path><path d="M76.0705 58.8099C78.6508 58.126 80.9645 56.6864 82.719 54.6733C84.4735 52.6602 85.5901 50.164 85.9276 47.5003C86.265 44.8367 85.8081 42.1252 84.6147 39.7087C83.4213 37.2923 81.545 35.2794 79.223 33.9247C76.901 32.5699 74.2376 31.9342 71.5697 32.0978C68.9017 32.2614 66.3491 33.217 64.2344 34.8439C62.1198 36.4707 60.5383 38.6956 59.6897 41.2373C58.8412 43.7789 58.7638 46.5232 59.4673 49.1231C60.4146 52.607 62.6945 55.5833 65.8071 57.3993C68.9196 59.2153 72.6107 59.7226 76.0705 58.8099ZM70.379 37.7779C71.9272 37.3675 73.5658 37.4289 75.0875 37.9543C76.6093 38.4797 77.9459 39.4456 78.9283 40.7297C79.9108 42.0138 80.4949 43.5585 80.6069 45.1685C80.7189 46.7785 80.3537 48.3815 79.5575 49.7747C78.7613 51.1679 77.5698 52.2888 76.1337 52.9956C74.6977 53.7024 73.0815 53.9634 71.4897 53.7456C69.8978 53.5278 68.4018 52.8409 67.1907 51.7719C65.9796 50.7029 65.1079 49.2997 64.6857 47.7398C64.1197 45.648 64.4015 43.4233 65.4692 41.5551C66.5369 39.6869 68.303 38.3282 70.379 37.7779Z" fill="black"></path><path d="M104.604 39.8851L99.386 41.2683L97.9632 36.0103L92.7448 37.3936L94.1676 42.6516L88.9492 44.0349L90.3721 49.2929L95.5905 47.9096L97.0134 53.1676L102.232 51.7844L100.809 46.5263L106.027 45.1431L104.604 39.8851Z" fill="black"></path><path d="M257.687 412.854C262.286 395.788 280.069 385.741 297.135 390.34C314.201 394.939 324.526 412.561 319.927 429.627C315.328 446.693 297.546 456.74 280.48 452.141C263.414 447.542 253.088 429.92 257.687 412.854Z" fill="#EB440F"></path><path d="M275.255 402.332L267.588 430.78L302.904 440.297L310.57 411.849L275.255 402.332ZM284.7 423.376L287.514 427.123L291.83 425.298L299.271 435.504L273.138 428.461L284.7 423.376ZM273.075 424.476L276.37 412.252L282.439 420.351L273.075 424.476ZM295.304 423.818L304.621 419.867L301.327 432.089L295.304 423.818ZM306.08 414.453L305.835 415.362L288.728 422.618L277.583 407.748L277.828 406.839L306.08 414.453Z" fill="#EFEFEF"></path><path d="M443.004 262.794C452.866 287.555 440.788 315.622 416.028 325.485C391.267 335.347 363.199 323.27 353.337 298.509C343.475 273.748 355.552 245.681 380.313 235.818C405.074 225.956 433.141 238.033 443.004 262.794Z" fill="#D3FE8A"></path><path d="M415.7 284.892L390.959 294.746L390.782 291.508L419.601 280.03L416.752 251.388L374.579 268.186L368.582 260.649L360.7 263.789L362.975 269.499L366.583 268.062L384.542 290.632L384.925 297.51C383.392 298.613 382.23 300.152 381.59 301.923C380.951 303.694 380.866 305.614 381.345 307.43C381.824 309.246 382.846 310.873 384.275 312.095C385.704 313.317 387.474 314.077 389.35 314.275C391.226 314.473 393.121 314.1 394.784 313.205C396.448 312.31 397.801 310.934 398.667 309.261C399.532 307.587 399.868 305.693 399.631 303.829C399.394 301.966 398.595 300.22 397.339 298.822L409.886 293.824C409.91 294.874 410.116 295.912 410.494 296.89C411.169 298.585 412.334 300.04 413.842 301.071C415.35 302.103 417.133 302.665 418.966 302.686C420.799 302.707 422.599 302.187 424.139 301.19C425.679 300.194 426.89 298.766 427.618 297.088C428.346 295.41 428.558 293.557 428.229 291.763C427.9 289.969 427.043 288.314 425.767 287.009C424.492 285.703 422.854 284.805 421.062 284.429C419.27 284.052 417.404 284.213 415.7 284.892ZM411.409 260.133L412.994 276.044L388.579 285.769L378.583 273.208L411.409 260.133ZM393.26 303.755C393.485 304.32 393.536 304.939 393.408 305.534C393.279 306.13 392.976 306.674 392.537 307.099C392.099 307.525 391.544 307.811 390.943 307.923C390.341 308.035 389.721 307.967 389.161 307.727C388.6 307.488 388.124 307.088 387.792 306.578C387.461 306.069 387.289 305.472 387.298 304.864C387.308 304.255 387.499 303.663 387.846 303.161C388.193 302.659 388.682 302.27 389.25 302.044C390.012 301.74 390.862 301.75 391.614 302.071C392.366 302.392 392.958 302.998 393.26 303.755ZM420.249 296.314C419.681 296.54 419.059 296.594 418.462 296.468C417.864 296.342 417.318 296.043 416.893 295.608C416.468 295.173 416.182 294.621 416.073 294.023C415.963 293.425 416.034 292.807 416.276 292.248C416.519 291.689 416.923 291.213 417.436 290.881C417.949 290.549 418.549 290.375 419.16 290.382C419.771 290.389 420.366 290.577 420.868 290.92C421.371 291.264 421.759 291.749 421.984 292.314C422.286 293.071 422.272 293.918 421.947 294.668C421.622 295.418 421.011 296.01 420.249 296.314Z" fill="#131313"></path><path d="M335.001 232.5L311.477 173.357V137H159.525V173.357L136.001 232.5H159.525V328H311.477V232.5H335.001ZM175.451 184.75H204.892L199.194 213.4H164.055L175.451 184.75ZM224.295 184.75H246.707L252.406 213.4H218.596L224.295 184.75ZM271.779 213.4L266.081 184.75H295.522L306.918 213.4H271.779ZM178.519 156.1H292.483V165.65H178.519V156.1ZM226.004 308.9V270.7H244.998V308.9H226.004ZM292.483 308.9H263.992V251.6H207.01V308.9H178.519V232.5H292.483V308.9Z" fill="black"></path></svg> 