<?xml version="1.0" encoding="UTF-8"?> <svg xmlns="http://www.w3.org/2000/svg" width="469" height="500" viewBox="0 0 469 500" fill="none"><path d="M300.038 96.5608L396.804 18.9958L443.116 134.899L300.038 96.5608Z" fill="#EB440F"></path><path fill-rule="evenodd" clip-rule="evenodd" d="M338.769 82.8188L417.19 103.832L370.728 277.229L370.798 277.247L349.785 355.668L167.876 306.925L116.142 499.999L37.7354 480.897L97.9461 254.225L99.1773 254.555L111.699 207.822L292.308 256.216L338.769 82.8188Z" fill="#EB440F"></path><mask id="mask0_271_2032" style="mask-type:alpha" maskUnits="userSpaceOnUse" x="0" y="9" width="443" height="491"><rect x="0.611328" y="9.02686" width="441.876" height="490.973" fill="#D9D9D9"></rect></mask><g mask="url(#mask0_271_2032)"><path d="M290.408 86.9309L387.175 9.36591L433.486 125.269L290.408 86.9309Z" fill="#F9F9F9"></path><path fill-rule="evenodd" clip-rule="evenodd" d="M329.139 73.1885L407.56 94.2011L361.098 267.6L361.167 267.619L340.154 346.039L158.245 297.297L106.512 490.368L28.1055 471.267L88.3162 244.594L89.5471 244.924L102.068 198.194L282.677 246.588L329.139 73.1885Z" fill="#F9F9F9"></path><circle cx="105.68" cy="183.813" r="105.068" fill="#D3FE8A"></circle><path d="M94.2808 131.085H95.2808V130.085V112.708H120.2V130.085V131.085H121.2H147.12V155.949H94.2808H93.2808V156.949V170.381V171.381H94.2808H147.12V236.543H121.2H120.2V237.543V254.919H95.2808V237.543V236.543H94.2808H68.3613V211.678H121.2H122.2V210.678V197.246V196.246H121.2H68.3613V131.085H94.2808Z" fill="black" stroke="#D3FE8A" stroke-width="2"></path></g></svg> 