<?xml version="1.0" encoding="UTF-8"?> <svg xmlns="http://www.w3.org/2000/svg" width="450" height="501" viewBox="0 0 450 501" fill="none"><path d="M68.5713 115H449.571V501H68.5713V115Z" fill="#F9F9F9"></path><path d="M282.033 236H319.572V290.744H282.033V236Z" fill="#131313"></path><path d="M282.033 298.566H319.572V314.207H282.033V298.566Z" fill="#131313"></path><path d="M243.87 314.206H275.777L261.386 287.281C267.856 282.588 271.092 275.103 271.092 264.713C271.092 245.496 260.047 236 237.399 236C236.953 236 197.571 236 197.571 236V314.206H227.359V293.314C229.478 293.314 231.933 293.314 233.829 293.314L243.87 314.206ZM234.499 258.345C239.408 258.345 242.085 260.02 242.085 264.713C242.085 269.293 239.408 270.969 234.499 270.969C232.825 270.969 229.925 270.969 227.359 270.969V258.345C229.925 258.345 232.825 258.345 234.499 258.345Z" fill="#131313"></path><path d="M100.071 0L114.106 25.4205L136.376 6.78654L140.28 35.5604L167.778 26.2296L161.024 54.4708L190.035 55.7033L173.536 79.5976L200.143 91.227L176.125 107.547L196.735 128.003L168.444 134.546L180.272 161.065L151.528 156.945L152.978 185.947L127.663 171.722L118.538 199.289L100.071 176.88L81.6045 199.289L72.4796 171.722L47.1648 185.947L48.6144 156.945L19.8706 161.065L31.6987 134.546L3.40781 128.003L24.0171 107.547L0 91.227L26.607 79.5976L10.1074 55.7033L39.1187 54.4708L32.3649 26.2296L59.8624 35.5604L63.7665 6.78654L86.0365 25.4205L100.071 0Z" fill="#D3FE8A"></path><path fill-rule="evenodd" clip-rule="evenodd" d="M56.5019 93.1899L143.641 93.1899L143.641 107.226L56.5019 107.226L56.5019 93.1899Z" fill="black"></path><path fill-rule="evenodd" clip-rule="evenodd" d="M92.7607 144.068L92.7607 56.9297H107.381L107.381 144.068H92.7607Z" fill="black"></path><path d="M368.171 195H148.971C141.704 195 134.735 197.883 129.597 203.016C124.458 208.149 121.571 215.11 121.571 222.368V372.895C121.571 380.153 124.458 387.115 129.597 392.247C134.735 397.38 141.704 400.263 148.971 400.263H217.471V427.632H176.371V455H340.771V427.632H299.671V400.263H368.171C375.438 400.263 382.408 397.38 387.546 392.247C392.685 387.115 395.571 380.153 395.571 372.895V222.368C395.571 215.11 392.685 208.149 387.546 203.016C382.408 197.883 375.438 195 368.171 195ZM368.171 222.368V331.842H148.971V222.368H368.171ZM272.271 413.947H244.871V400.263H272.271V413.947ZM299.671 372.895H148.971V359.211H368.171V372.895H299.671Z" fill="#131313"></path><path fill-rule="evenodd" clip-rule="evenodd" d="M127.476 200.893C133.178 195.199 140.91 192 148.971 192H368.171C376.233 192 383.965 195.199 389.666 200.893C395.368 206.588 398.571 214.313 398.571 222.368V372.895C398.571 380.95 395.368 388.675 389.666 394.37C383.965 400.064 376.233 403.263 368.171 403.263H302.671V424.632H343.771V458H173.371V424.632H214.471V403.263H148.971C140.91 403.263 133.178 400.064 127.476 394.37C121.775 388.675 118.571 380.95 118.571 372.895V222.368C118.571 214.313 121.775 206.588 127.476 200.893ZM148.971 198C142.499 198 136.292 200.568 131.717 205.139C127.141 209.709 124.571 215.907 124.571 222.368V372.895C124.571 379.357 127.141 385.554 131.717 390.125C136.292 394.695 142.499 397.263 148.971 397.263H220.471V430.632H179.371V452H337.771V430.632H296.671V397.263H368.171C374.644 397.263 380.85 394.695 385.426 390.125C390.001 385.554 392.571 379.357 392.571 372.895V222.368C392.571 215.907 390.001 209.709 385.426 205.139C380.85 200.568 374.644 198 368.171 198H148.971ZM145.971 219.368H371.171V334.842H145.971V219.368ZM151.971 225.368V328.842H365.171V225.368H151.971ZM145.971 356.211H371.171V375.895H145.971V356.211ZM151.971 362.211V369.895H365.171V362.211H151.971ZM241.871 397.263H275.271V416.947H241.871V397.263ZM247.871 403.263V410.947H269.271V403.263H247.871Z" fill="#F9F9F9"></path></svg> 