<?xml version="1.0" encoding="UTF-8"?> <svg xmlns="http://www.w3.org/2000/svg" width="44" height="36" viewBox="0 0 44 36" fill="none"><path d="M16.3018 12.9675H13.5381V17.274H16.3018C17.5888 17.274 18.7768 17.0155 18.7768 15.1373C18.7768 13.259 17.5861 12.9703 16.3018 12.9703V12.9675Z" fill="#F9F9F9"></path><path d="M0 0.125V35.875H44V0.125H0ZM19.1482 28.3675L16.3762 22.609H13.5382V28.3675H6.14074V7.63249H17.0747C23.078 7.63249 25.9957 10.0855 25.9957 15.1345C25.9957 17.879 25.1652 19.804 23.4575 21.0195L23.1605 21.2312L27.0105 28.3675H19.151H19.1482ZM37.8592 28.3675H28.3717V24.556H37.8592V28.3675ZM37.8592 22.6145H28.3717V7.63249H37.8592V22.6145Z" fill="#F9F9F9"></path></svg> 