<?xml version="1.0" encoding="UTF-8"?> <svg xmlns="http://www.w3.org/2000/svg" width="197" height="21" viewBox="0 0 197 21" fill="none"><path d="M195.015 20.0258V15.9257L193.986 20.0258H195.015Z" fill="#F9F9F9"></path><path d="M173.733 18.2168C174.249 18.2168 174.671 18.6578 174.671 19.2001C174.671 19.5454 174.502 19.8494 174.249 20.0276H176.934C175.608 19.6298 174.822 18.5621 174.822 17.0403C174.822 15.0906 176.108 13.8803 178.18 13.8803C179.861 13.8803 181.263 15.0193 181.433 16.4942H179.306C179.143 16.1246 178.721 15.8713 178.247 15.8713C177.545 15.8713 177.034 16.3629 177.034 17.0384C177.034 17.714 177.545 18.1981 178.247 18.1981C178.721 18.1981 179.143 17.9466 179.306 17.5751H181.433C181.302 18.716 180.438 19.6524 179.281 20.0258H183.929C182.566 19.6355 181.807 18.5959 181.807 17.0384C181.807 15.0006 183.033 13.8784 185.257 13.8784C187.482 13.8784 188.708 15.0006 188.708 17.0384C188.708 18.5959 187.948 19.6355 186.586 20.0258H189.156V14.0473H192.415L193.096 17.1379L193.848 14.0473H197V0.840698H173.356V18.2994C173.472 18.245 173.599 18.215 173.734 18.215L173.733 18.2168Z" fill="#F9F9F9"></path><path d="M192.275 20.0258L191.174 15.9257V20.0258H192.275Z" fill="#F9F9F9"></path><path d="M186.494 17.039C186.494 16.324 186.008 15.8624 185.256 15.8624C184.504 15.8624 184.018 16.324 184.018 17.039C184.018 17.7539 184.491 18.2061 185.256 18.2061C186.02 18.2061 186.494 17.7595 186.494 17.039Z" fill="#F9F9F9"></path><path d="M15.1454 13.2289C16.639 12.1049 17.3645 10.3223 17.3645 7.78341C17.3645 3.11286 14.8119 0.840454 9.56298 0.840454H0V20.0255H6.47111V14.6963H8.95454L11.3794 20.0255H18.2532L14.8864 13.4241L15.1454 13.2289ZM8.88891 9.76121H6.47111V5.77746H8.88891C10.0135 5.77746 11.0548 6.0214 11.0548 7.78341C11.0548 9.54542 10.0135 9.76121 8.88891 9.76121Z" fill="#F9F9F9"></path><path d="M25.8996 12.7579H34.3645V8.10804H25.8996V6.0608H35.1468V0.840454H19.4551V20.0255H35.1468V14.8333H25.8996V12.7579Z" fill="#F9F9F9"></path><path d="M42.5711 20.0255H49.0423V6.86018H54.7843V0.840454H36.8291V6.86018H42.5711V20.0255Z" fill="#F9F9F9"></path><path d="M62.9113 12.7579H71.3763V8.10804H62.9113V6.0608H72.1568V0.840454H56.4668V20.0255H72.1568V14.8333H62.9113V12.7579Z" fill="#F9F9F9"></path><path d="M80.9738 0.840454H73.8428V20.0255H80.3139V9.85128H80.2784L86.0967 20.0255H92.9936V0.840454H86.5225V10.7576L80.9738 0.840454Z" fill="#F9F9F9"></path><path d="M100.421 20.0255H106.892V6.86018H112.634V0.840454H94.6787V6.86018H100.421V20.0255Z" fill="#F9F9F9"></path><path d="M117.308 14.0058H114.317V20.0255H126.742V14.0058H123.753V6.86018H126.742V0.840454H114.317V6.86018H117.308V14.0058Z" fill="#F9F9F9"></path><path d="M139.514 0.373291C132.381 0.373291 128.452 3.97237 128.452 10.5062C128.452 17.0401 132.484 20.6411 139.514 20.6411C146.544 20.6411 150.576 16.9482 150.576 10.5062C150.576 4.06431 146.647 0.373291 139.514 0.373291ZM139.514 14.2517C137.064 14.2517 135.544 12.8162 135.544 10.5081C135.544 8.20006 137.103 6.73454 139.514 6.73454C141.925 6.73454 143.484 8.21507 143.484 10.5081C143.484 12.8012 141.962 14.2517 139.514 14.2517Z" fill="#F9F9F9"></path><path d="M159.426 0.840454H152.26V20.0255H158.731V9.85128L164.549 20.0255H171.448V0.840454H164.975V10.7576L159.426 0.840454Z" fill="#F9F9F9"></path></svg> 