<?xml version="1.0" encoding="UTF-8"?> <svg xmlns="http://www.w3.org/2000/svg" width="253" height="253" viewBox="0 0 253 253" fill="none"><path d="M95.5095 3.10851L120.298 30.0086L141.965 0.53619L155.363 34.5745L186.213 14.9194L186.41 51.4988L222.278 44.3156L209.247 78.4959L245.288 84.7546L220.789 111.92L252.135 130.775L219.478 147.256L241.896 176.161L205.491 179.732L215.953 214.784L180.716 204.963L177.81 241.427L148.5 219.54L132.617 252.492L113.194 221.495L86.4798 246.484L79.5651 210.564L45.628 224.215L52.1562 188.223L15.5793 188.693L34.6688 157.489L0.391934 144.714L29.4645 122.513L2.11701 98.2192L37.2462 88.0197L20.5215 55.487L56.963 58.6664L53.1199 22.2889L85.9521 38.4178L95.5095 3.10851Z" fill="#D3FE8A"></path></svg> 